<?xml version="1.0"?>
<svg xmlns:rdf="http://www.w3.org/1999/02/22-rdf-syntax-ns#" xmlns="http://www.w3.org/2000/svg" xmlns:cc="http://web.resource.org/cc/" xmlns:dc="http://purl.org/dc/elements/1.1/" xmlns:svg="http://www.w3.org/2000/svg" id="svg1319" height="275pt" width="744.09" version="1.0">
  <g id="layer1">
    <g id="g1544" transform="translate(76.271 -201.43)">
      <path id="path8136" d="m215.59 5.7812c-0.4 0.0147-0.8 0.0333-1.12 0.0626-0.2 0.0182-0.35 0.0455-0.44 0.0624-0.01 0.0034-0.05 0.028-0.06 0.0313-0.01 0.0016-0.03-0.0016-0.03 0 0 0.0031-0.01 0.0282 0 0.0313 0 0.0014 0.02-0.0015 0.03 0 0.22 0.0566 1.25 0.0937 2.87 0.0937 1.67 0 2.72-0.0347 2.91-0.0937v-0.0313c0-0.0016-0.03 0.0016-0.03 0-0.01-0.0016-0.03-0.0296-0.03-0.0313-0.09-0.0184-0.25-0.0423-0.47-0.0624-0.98-0.0879-2.42-0.1065-3.63-0.0626zm0.91 1.0313c-5.22 0.0995-8.51 1.4547-11.72 4.7495-3.71 3.802-4.8 7.235-4.72 14.719 0.1 9.198 0.92 10.914 11.94 25.5 27.04 35.773 64.09 83.899 96.88 125.75 11.52 14.71 24.54 32.16 25.93 34.78 1.19 2.24 1.22 2.61 0.57 5.07-0.36 1.32-0.71 2.49-0.82 2.74 0 0.01 0.01 0.03 0 0.04h-0.03c-0.29 0.08-4 0.42-8.44 0.75-17.46 1.28-40.52 4.17-61.15 7.71-27.91 4.8-80.87 14.82-90.06 17.04-22.56 5.44-22.89 5.5-27.16 4.84-10.59-1.64-19.89-10.61-27.28-26.28-3.24-6.86-4.52-10.71-6.82-20.81-1.04-4.59-2.28-9.6-2.78-11.13-3.4-10.45-9.66-16.03-17.996-16.03-5.756 0-9.913 2.3-12.156 6.72-3.727 7.34-6.091 20.08-8.719 47.09-1.066 10.95-2.166 20.4-2.5 21.47-0.005 0.02-0.027 0.05-0.031 0.06-0.026 0.05-0.064 0.11-0.094 0.16-0.568 0.84-1.876 1.35-3.469 1.37l-7.531-2.03-0.063-0.03c-1.314-0.47-2.735-0.99-4.156-1.53-19.84-7.58-24.888-8.74-32.969-7.59-9.5 1.34-14.5 5.37-14.5 11.68 0.0002 5.33 7.474 11.35 29.032 23.41 6.105 3.42 11.238 6.6 11.937 7.38 0.005 0 0.027 0.02 0.031 0.03 0.004 0 0.028 0.02 0.032 0.03 0.002 0-0.003 0.03 0 0.03 0.001 0 0.03 0.03 0.031 0.03 0.061 0.51-0.999 2.28-2.375 3.97s-2.497 3.45-2.532 3.94c0 1.68 1.263 3.12 3.782 4.25 2.247 1 4.205 1.21 14.562 1.56 7.491 0.26 13.619 0.76 16.406 1.34 2.754 0.58 12.823 4.29 26.438 9.75 43.02 17.27 62.25 23.63 68.09 22.54 4.25-0.8 7.03-5.31 6.16-9.97-0.7-3.74-3.32-6.53-13.5-14.29-7.53-5.73-9.67-7.59-10.03-8.81-0.02-0.07-0.06-0.15-0.06-0.22-0.05-0.4-0.03-0.75 0.03-1 0.02-0.07 0.06-0.16 0.09-0.21 0.01-0.02 0.02-0.05 0.03-0.07 0.01 0 0.03-0.02 0.03-0.03 0.04-0.04 0.09-0.09 0.13-0.12 0-0.01 0.02-0.03 0.03-0.04 0.01 0 0.03 0.01 0.03 0 0.01 0 0.05-0.02 0.06-0.03 0.02 0 0.05 0.01 0.07 0 0.01 0 0.04-0.03 0.06-0.03 0.4 0 2.48-0.25 4.62-0.56 8.57-1.24 22.97-2.25 36.16-2.53 12.71-0.28 21.32-1.05 100.66-9.16l86.72-8.87 103.43 30.53c56.44 16.67 103.34 30.36 104.81 30.59 2.08 0.06 13.78-3.23 14.82-4.12 0.01-0.01 0.02-0.03 0.03-0.03 0-0.01 0.03-0.03 0.03-0.03l0.66 0.5c-0.41-4.06-1.21-7.25-2.28-9.85 0.78 0.2 1.06 0.58 1.28 1.38 0.12 0.44 0.22 0.71 0.28 0.84v0.03l0.03 0.03h0.03s0.03 0.01 0.03 0v-0.06c0.03-0.1 0.05-0.32 0.06-0.63 0.03-0.63-0.69-2.31-1.62-3.71-0.95-1.43-2.24-2.81-4.94-5.1l-0.09-0.06c-0.04-0.04-0.09-0.05-0.13-0.09-0.02-0.02-0.04-0.05-0.06-0.07-0.05-0.04-0.11-0.08-0.16-0.12-0.96-0.9-1.96-1.71-3-2.47l-0.06-0.03c-0.04-0.04-0.08-0.09-0.12-0.13-0.06-0.04-0.13-0.08-0.19-0.12l-0.03-0.03c-0.1-0.07-0.18-0.15-0.28-0.22-0.94-0.74-1.95-1.55-3.1-2.44l-3-2.34-0.15 0.28c-1.43-1.19-2.8-2.53-4.04-4.19l0.13-1.75v-0.03c0.26-0.47 0.7-1.08 1.19-1.66 0.78-0.93 2.01-2.89 2.75-4.34 0.73-1.45 2.39-3.51 3.65-4.59l2.32-1.97-4.04-2.03c-1.92-0.97-3.62-1.72-4.09-1.82h-0.09c-0.01 0.01-0.03 0-0.03 0-0.01 0.01 0 0.03 0 0.03-0.01 0.01-0.03 0.05-0.03 0.07-0.16 0.43-0.53 2.37-0.88 4.62l0.34-5.12c-0.88-0.47-2.13-0.88-3.65-1.25 0.02-0.03 0.04-0.07 0.06-0.1 0.01-0.01 0.03-0.05 0.03-0.06l0.03-0.03v-0.16s-0.03-0.02-0.03-0.03v-0.03c0-0.01-0.02-0.02-0.03-0.03-0.25-0.4-1.33-0.95-3.69-1.94-2.38-0.99-6.28-2.19-8.65-2.65-3.91-0.77-4.68-0.76-8.07 0.03-6.52 1.52-14.59-0.53-14.59-3.72 0-1.11 0.38-1.33 2.87-1.63 6.02-0.71 9.38-4.24 9.38-9.87 0-2.24 0.26-2.83 1.72-4.06 0.88-0.75 1.81-1.37 2.16-1.44h0.15c0.02 0 0.05-0.03 0.06-0.03h0.03c0.02-0.01 0.06-0.03 0.07-0.03 0-0.01 0.02-0.03 0.03-0.04 0.02-0.01 0.04-0.04 0.06-0.06 0.01 0 0.03-0.02 0.03-0.03 0.01 0 0.03-0.02 0.03-0.03 0.01-0.02 0.03-0.04 0.04-0.06 0-0.02 0.02-0.05 0.03-0.06 0-0.03 0.02-0.08 0.03-0.1 0-0.02-0.01-0.07 0-0.09 0.11-0.75-0.38-2.1-1.22-2.78-1.08-0.88-1.15-1.18-0.56-2.47 0.36-0.81 1.3-1.7 2.09-2 1.67-0.64 6.93-0.72 7.81-0.13 0.35 0.3 1.26 2.96 2.03 5.97l1.41 5.56 0.06-4.06c0.07-5.38 1.06-7.34 3.69-7.34 0.87 0 1.4 0.09 1.69 0.31 0.03 0.02 0.07 0.07 0.09 0.09s0.05 0.07 0.06 0.1c0.07 0.12 0.12 0.28 0.13 0.47v0.12c0 0.01 0.03 0.03 0.03 0.03v0.03c0 0.01 0.03 0.03 0.03 0.03 0 0.01 0.03 0 0.03 0 0.01 0 0.03 0.01 0.03 0 0.01 0 0.03-0.02 0.04-0.03l0.03-0.03c0.16-0.15 0.41-0.62 0.68-1.28 1.01-2.44-1.39-1.59 24.94-8.47 29.99-7.83 43.47-11.72 63.13-18.19 33.89-11.15 38.75-13.21 50.59-21.43 11.37-7.9 15.56-12.62 15.56-17.47 0-3.77-4.61-7.58-12.31-10.16l-4.28-1.4h-22.6c-16.02 0-22.95-0.2-23.81-0.66-0.67-0.35-2.26-1.49-3.53-2.53-2.12-1.73-2.98-2.01-10.28-3.22-4.39-0.73-9.48-1.46-11.31-1.66-2.19-0.22-25.92 1.48-69.16 4.97-36.2 2.92-67.18 5.32-68.87 5.32-3.53 0-5.8-1.15-7.94-4l-1.38-1.85-0.28 2.78c-0.25 2.48-0.43 2.79-1.68 2.94-1.2 0.14-1.84-0.41-4.04-3.63-1.43-2.09-3.26-4.43-4.09-5.18l-1.5-1.35 1.44 1.94c2.51 3.38 4.3 7.83 4.31 10.75 0 2.26-0.2 2.88-1.81 4.53-0.02 0.02-0.05 0.02-0.07 0.03-1.79 0.67-3.48 1.41-5.03 2.16h-0.03c-0.77-0.4-1.56-1.15-2.34-2.19l-0.03-0.06c-1.06-2.75-2.46-5.36-4.5-8.03-0.01-0.01 0-0.03 0-0.03 0.05-0.01 0.12-0.02 0.15-0.03 0.02-0.01 0.06-0.03 0.07-0.04l0.03-0.03v-0.03l0.03-0.03v-0.03c0-0.01-0.03-0.02-0.03-0.03-0.01-0.02-0.02-0.07-0.03-0.09-0.09-0.17-0.31-0.4-0.6-0.72-0.27-0.3-0.69-0.62-1.19-0.88 0 0-0.02 0.01-0.03 0-0.03-0.04-0.06-0.09-0.09-0.12-0.04-0.01-0.08 0-0.12 0-0.45-0.21-0.93-0.36-1.35-0.44-2.38-0.45-33.16 0.68-39.19 1.44-2.6 0.32-7.12 1.21-10.03 1.96-7.51 1.96-10.91 2.25-13.59 1.13-0.93-0.39-2.01-1.01-3.16-1.81-0.05-0.04-0.1-0.09-0.15-0.13l-12.22-12.81c-0.02-0.04-0.05-0.06-0.07-0.09-0.18-0.44-0.28-0.82-0.28-1.13 0-0.73 0.09-1.38 0.19-1.56l0.03-0.03h0.03c0.23-0.02 2.02-0.36 4.03-0.78 2.09-0.44 7.29-1.19 11.57-1.66 8.24-0.91 12.61-1.96 15.93-3.81 1.96-1.09 2.07-1.28 2.44-4.94 0.31-3.02 0.73-4.24 2-5.84 0.85-1.07 1.53-2.07 1.6-2.28v-0.07c-0.1-0.2-0.68-0.72-1.35-1.25-0.74-0.58-1.99-2.38-2.78-3.97l-1.03-2.09c-0.43-2.47-1.21-5.02-2.28-7.59-5.26-8.01-34.59-3.07-56 0.15 15.43-3.8 20.98-4.52 33.4-4.53 6.23 0 8.99-0.02 9.57-0.19 0 0 0.02-0.03 0.03-0.03h0.03c0.01 0 0.03-0.02 0.03-0.03v-0.06h-0.03c-0.01-0.01-0.02-0.03-0.03-0.03-0.01-0.01-0.05-0.03-0.06-0.03-0.17-0.08-0.48-0.15-0.91-0.25-1.52-0.36-6.28-0.67-10.56-0.69-8.23-0.04-13.83 0.75-31.03 4.34-4.53 0.95-9.09 1.69-10.16 1.69-5.12 0-12.36-5.95-43.06-35.562-46.22-44.587-58-55.341-73.19-66.844-14.48-10.967-24.45-16.032-31.63-16.032-0.21 0.0005-0.41-0.0035-0.62 0.0005zm215.34 96.778c0 0.01 0.01 0.03 0 0.03 0 0.01-0.03 0.03-0.03 0.04v0.06c0.01 0.01 0.03 0.04 0.03 0.06 0.12 0.27 0.6 0.78 1.32 1.34 1.07 0.84 2.7 2.2 3.62 3.04 1.02 0.92 1.61 1.39 1.81 1.5 0.01 0 0.03 0.03 0.03 0.03h0.04l0.03-0.03c0-0.01-0.03-0.03-0.03-0.04-0.13-0.26-1.12-1.35-2.82-3-1.59-1.54-3.21-2.84-3.78-3.03-0.02 0-0.07 0.01-0.09 0h-0.09c-0.01 0.01-0.03 0-0.04 0zm13.1 0.03v0.04c0.04 0.16 0.51 0.96 1.47 2.43 2.82 4.37 4.37 7.49 7.59 15.41 1.35 3.31 2.58 6.09 2.88 6.5 0 0.01 0.02 0.03 0.03 0.03h0.09v-0.03c0.01-0.01 0.03-0.02 0.03-0.03 0.01-0.01 0.03-0.05 0.03-0.06v-0.03c0.01-0.05 0.03-0.13 0.03-0.19 0-1.09-1.02-4.42-2.34-7.53-2.2-5.18-6.66-13-8.81-15.47-0.46-0.52-0.76-0.87-0.91-1-0.01-0.01-0.02-0.03-0.03-0.03-0.01-0.01-0.03-0.03-0.03-0.04 0 0-0.03 0.01-0.03 0zm4.34 29.69l0.28 3.57c0.16 1.95 0.27 4.97 0.28 6.68 0.01 1.43 0.05 2.2 0.16 2.47 0.01 0.02 0.02 0.05 0.03 0.06l0.03 0.03c0 0.01 0.03 0 0.03 0 0.01 0.01 0.03 0.04 0.03 0.04 0.01 0 0.03-0.03 0.04-0.04 0.12-0.03 0.29-0.22 0.53-0.53 1.12-1.48 1.01-4.37-0.31-8.65l-1.1-3.63zm-17.16 10.94c-0.25 1.79-0.65 2.86-1.18 3.34-0.06 0.05-0.13 0.09-0.19 0.13-0.6 0.37-0.97 0.4-1.47-0.03l1.31-0.44c0.62-0.94 1.12-1.96 1.53-3zm19.35 29.5c0.2-0.01 0.39 0 0.59 0-3.9 0.45-7.72 1.01-11.53 1.56 4.9-1.01 7.01-1.44 10.94-1.56zm-358.53 3.78h0.281c-1.438 0.11-2.983 0.5-4.657 1.19l0.344-0.22c0.888-0.52 2.382-0.9 4.032-0.97zm-4.438 1.22l-1.219 18v-17.31l1.219-0.69zm642.66 1.09c1.01 0.83 1.71 1.76 1.72 2.57 0 0.69 0.38 2.18 0.84 3.28s0.81 2.55 0.81 3.25c0 0.24 0 0.46-0.06 0.62-0.01 0.02-0.02 0.05-0.03 0.06-0.01 0.02-0.03 0.06-0.03 0.07-0.01 0-0.03 0.02-0.03 0.03-0.03 0.03-0.07 0.06-0.1 0.09 0 0.01-0.02 0.03-0.03 0.03-0.09 0.07-0.2 0.14-0.34 0.19-0.19-4.64-1.14-7.91-2.75-10.19zm7 3.6c-0.01 0 0 0.03 0 0.03-0.06 0.16-0.1 0.82-0.1 1.84 0 0.95 0.01 1.59 0.06 1.81l0.04 0.04s-0.01 0.02 0 0.03 0.02 0.03 0.03 0.03v-0.03c0-0.01 0.03-0.02 0.03-0.03v-0.04c0.02-0.05 0.04-0.16 0.06-0.28 0.13-0.84 0.13-2.22 0-3.06-0.01-0.1-0.05-0.19-0.06-0.25v-0.06c0-0.01-0.03-0.03-0.03-0.03h-0.03zm-4.5 6.65c-0.05 0.02-0.11 0.02-0.16 0.03-0.05 0.02-0.1 0.02-0.16 0.04-0.24 0.04-0.55 0.08-0.9 0.12-0.09 0.01-0.16 0.02-0.25 0.03-0.1 0.01-0.21 0.02-0.31 0.03l0.31-0.03 0.25-0.03 0.9-0.12 0.16-0.04 0.16-0.03zm-623 9.6c0.81 2.76 1.62 5.86 2.46 9.34 0.22 0.89 0.45 1.75 0.66 2.59-1.14-3.6-2.18-7.57-3.12-11.93zm219.75 22.5l-88.22 14.56c49.97-8.93 75.33-13.11 88.22-14.56zm-324.6 29.12c-0.0016 0.01 0.0015 0.03 0 0.03-0.0578 0.22-0.0957 0.98-0.0937 2.1 0.0018 1.06 0.0402 1.75 0.0937 1.94 0.0015 0-0.0015 0.02 0 0.03h0.0313c0.0016-0.01 0.0295-0.03 0.0312-0.03 0.0035-0.02-0.0036-0.05 0-0.07 0.0181-0.07 0.0432-0.19 0.0625-0.34 0.1238-1 0.1269-2.51 0-3.35-0.0198-0.13-0.0442-0.22-0.0625-0.28-0.0018 0 0.0018-0.02 0-0.03h-0.0625zm553.31 10.53l-0.03 0.5h-0.09l0.12-0.5zm40.88 11.85v0.03c0.06 0.2 0.54 1.05 1.53 2.62 3.81 6.08 4.85 9.58 4.85 16.72 0 3.12 0.04 5.73 0.12 6.19 0 0.01 0.03 0.03 0.03 0.03v0.03h0.03c0.01 0 0.03-0.03 0.03-0.03 0.62-0.44 2.84-6.08 2.85-7.31 0.01-3.42-4.61-12.94-8.32-17.13-0.54-0.61-0.91-1-1.06-1.12 0-0.01-0.02-0.03-0.03-0.03h-0.03zm11.94 2.47l-0.03 0.03v0.06c-0.04 0.29 0.14 1.21 0.59 2.72 0.45 1.48 1.12 4.99 1.5 7.78 0.32 2.29 0.55 3.46 0.69 3.69v0.03h0.06v-0.03c0.01-0.01 0.03-0.05 0.03-0.06 0.04-0.14 0.1-0.39 0.13-0.76 0.22-2.7-0.8-8.6-1.97-11.53-0.43-1.06-0.74-1.67-0.91-1.87l-0.03-0.03-0.03-0.03h-0.03zm-10.03 53.09l3.65 2.91c-0.27-0.06-0.59-0.1-0.97-0.13-0.84-0.07-1.36-0.14-1.71-0.37-0.47-0.33-0.64-0.99-0.97-2.41zm-10.85 8.5c-0.24 0.02-0.49 0.06-0.68 0.09-0.1 0.02-0.18 0.05-0.22 0.07-0.01 0-0.03-0.01-0.04 0 0 0-0.02 0.03-0.03 0.03v0.03h0.03c0.01 0 0.03 0.03 0.04 0.03 0.18 0.05 0.69 0.09 1.46 0.09 0.8 0 1.34-0.03 1.5-0.09 0.01 0 0.03-0.03 0.04-0.03h0.03v-0.03h-0.03c-0.01 0 0-0.03 0-0.03-0.01-0.01-0.03 0-0.04 0 0-0.01-0.02 0-0.03 0-0.04-0.02-0.13-0.05-0.21-0.07-0.5-0.09-1.2-0.13-1.82-0.09z" fill-rule="evenodd" transform="translate(-76.271 201.43)" stroke="#fff" stroke-width="1.25" fill="#fff"/>
      <g id="g1553" transform="matrix(.55607 0 0 .55607 113.02 82.932)">
        <path id="path1532" d="m714.05 820.43c-3.85-0.96-87.4-25.44-185.66-54.4s-180.3-52.65-182.3-52.65-71.36 6.97-154.12 15.5c-105.88 10.9-154.1 15.5-162.7 15.5-16.048 0.01-46.347 1.64-65.717 3.54-18.012 1.77-21.21 2.31-20.494 3.47 0.288 0.46 6.929 5.67 14.759 11.57 7.829 5.89 15.737 12.11 17.574 13.82 11.068 10.27 11.047 29.04-0.04 34.7-11.64 5.94-38.415-1.94-126.35-37.19-23.13-9.27-44.73-17.53-48-18.37-7.64-1.94-25.77-3.52-40.52-3.54-13.68-0.01-20.23-1.62-24.45-6.02-4.31-4.51-4.06-9.34 0.8-15.27 2.05-2.5 3.72-4.93 3.71-5.38-0.01-0.46-8.19-5.33-18.18-10.83-42.56-23.43-54.93-34.56-53.6-48.24 1.39-14.46 11.53-21.06 33.79-22 14.49-0.62 22.37 1.14 46.23 10.29 9.42 3.62 20.03 7.53 23.59 8.7l6.46 2.12 1.86-2.3c1.03-1.26 1.86-3.1 1.86-4.09 0-4.9 7.24-73.73 8.62-81.98 3.2-19.14 8.34-35.62 13.02-41.77 5.7-7.49 20.27-11.15 31.43-7.9 16.68 4.85 24.6 17.16 31.39 48.79 3.46 16.13 6.92 26.7 12.56 38.38 14.43 29.87 31.874 45.5 50.782 45.5 3.414 0 12.478-1.63 21.775-3.91 35.731-8.76 96.998-20.69 180.42-35.12 36.18-6.26 80.13-11.93 109-14.05 8.53-0.63 16.07-1.6 16.75-2.16 0.69-0.55 1.25-2.49 1.25-4.3 0-2.55-1.93-5.93-8.6-15.08-11.35-15.55-29.25-38.82-59.9-77.88-37.5-47.8-116.9-151.11-160.88-209.32-9.265-12.27-12.044-18.05-13.682-28.48-2.992-19.05 2.059-36.21 12.566-42.71 7.474-4.61 21.708-6.19 32.499-3.6 10.568 2.54 28.57 12.92 48.497 27.96 24.88 18.79 50.31 41.9 117.88 107.15 51.12 49.36 68.01 64.75 79.31 72.25 6.87 4.57 8.26 4.58 28.81 0.27 35.27-7.39 50.66-9.04 66.28-7.12 9.65 1.19 18.68 4 22.18 6.9 1.76 1.47 2.24 3.87 3.52 17.7 1.49 16.15 2.89 23.5 4.48 23.5 1.66 0 2.38-15.11 1.04-21.47-0.7-3.32-1.48-8.44-1.73-11.38-0.41-4.67-0.25-5.3 1.28-5 1.8 0.36 4.32 4.67 9.3 15.96 1.88 4.26 4.21 7.64 6.54 9.5 1.99 1.59 3.61 3.35 3.61 3.91 0 0.57-1.74 3.34-3.86 6.17-3.12 4.16-3.99 6.31-4.55 11.28-1.29 11.39-5.45 13.07-45.85 18.51-12.76 1.72-14.74 2.22-14.74 3.7 0 1.7 20.35 21.49 24 23.35 4.8 2.43 9.63 2.16 24.1-1.38 15.47-3.78 29.84-5.08 65.16-5.86l27.75-0.61 3.75 3.95c2.06 2.17 4.54 6.18 5.5 8.91 0.97 2.73 2.86 6.31 4.19 7.96 2.34 2.89 2.52 2.94 5.24 1.46 1.55-0.85 3.4-2.77 4.13-4.27 3.09-6.44-4.74-20.41-19.72-35.17-10-9.85-10.72-12.48-2.47-9.04 3.96 1.66 14.17 9.54 19.02 14.68 1.73 1.83 5.44 6.4 8.25 10.14l5.1 6.8v-3.8c0-7.75-6.71-18.3-22.05-34.7-3.27-3.5-5.95-7.09-5.95-7.98 0-2.07 0.25-2.05 5.18 0.47 8.67 4.42 14.63 11.54 25.83 30.85 5.28 9.12 11.22 15.73 14.84 16.52 1.48 0.33 56.03-3.69 121.2-8.93 65.17-5.25 121.28-9.53 124.69-9.53 6.82 0 24.87 2.32 35.7 4.59 5.34 1.12 8.21 2.44 12.42 5.68l5.47 4.23 43.59 0.5 43.58 0.5 7.61 3.28c8.27 3.57 15.09 8.77 17.42 13.27 4.17 8.05-1.09 21.51-11.77 30.13-7.96 6.42-29.23 20.54-36.26 24.06-9.79 4.92-30.02 12.38-65 23.98-35.43 11.74-66.61 20.75-120.5 34.81-21.72 5.67-40.05 10.72-40.72 11.23s-1.74 3.59-2.38 6.83c-0.65 3.34-1.69 5.91-2.38 5.91-0.67 0-1.94-1.85-2.82-4.1-1.75-4.45-3.71-4.79-4.82-0.83-0.37 1.33-0.77 7.15-0.88 12.93-0.11 5.77-0.5 11.59-0.87 12.92-0.91 3.26-2.94 3.77-3.53 0.9-2.25-11.03-5.75-26.09-6.56-28.22-0.88-2.32-1.52-2.6-5.95-2.6-5.55 0-7.07 1.25-4.69 3.89 3.29 3.63 1.75 8.11-4.16 12.11-1.72 1.16-2.43 3.03-3.16 8.32-1.42 10.25-5.29 14.65-15.07 17.16l-4.51 1.16 2.5 1.39c2.63 1.45 10.72 1.61 23.79 0.45 6.11-0.55 8.73-0.24 16.22 1.91 10.23 2.93 42.99 18.91 42.99 20.96 0 0.74-2.2 2.72-4.89 4.39-3.25 2.02-5.82 4.68-7.64 7.9-1.51 2.67-3.79 6.4-5.07 8.29-1.86 2.76-2.09 3.73-1.12 4.9 0.66 0.79 6.83 5.83 13.71 11.19 20.74 16.16 22 18.06 22.01 33.15v10.66l-4.75 1.58c-6.08 2.01-22.97 5.62-25.68 5.48-1.14-0.06-5.22-0.88-9.07-1.84zm32.96-18.45c-0.38-1.98-1.08-3.6-1.57-3.6-1.18 0-1.12 2.25 0.14 5.57 1.39 3.66 2.26 2.47 1.43-1.97zm-31.46-34.47c0-0.9-7.08-6.13-8.3-6.13-1.72 0-0.39 1.89 3.04 4.34 3.91 2.78 5.26 3.24 5.26 1.79zm-4.47-33.38c0.44-3.57 0.33-5.75-0.28-5.75-0.91 0-2.25 6.72-2.25 11.34 0 4.14 1.84 0.07 2.53-5.59zm-24.03-6.55l3-0.86-2.5-0.6c-3.22-0.77-32.98-3.1-33.47-2.61-0.2 0.2-0.69 1.68-1.09 3.28l-0.73 2.91 15.89-0.64c8.75-0.35 17.25-1.02 18.9-1.48zm-751.5-22.2c109.03-16.81 191.15-28.88 282.5-41.52 44.88-6.21 64.42-11.38 71.46-18.92 2.2-2.36 2.34-2.95 1.28-5.75-2.17-5.75-7.69-14.17-12.79-19.52-5.97-6.25-4.84-6.12-27.64-3.23-41.67 5.29-260.48 44.09-290.81 51.57-14.591 3.6-42.468 12.15-61.5 18.87-8.8 3.11-23.03 8.09-31.62 11.07l-15.62 5.42-9.88-2.94c-5.43-1.62-15.68-5.01-22.77-7.53s-13.07-4.4-13.29-4.17c-0.22 0.22 8.05 4.12 18.39 8.66 10.34 4.55 24.18 10.65 30.77 13.56 7.77 3.43 12.86 5.12 14.5 4.83 1.39-0.25 31.548-4.93 67.023-10.4zm109.01-35.99c-0.585-1.09-1.163-3.68-1.285-5.75-0.217-3.69-0.142-3.77 3.605-4.08 4.235-0.35 8.674 1.91 8.674 4.42 0 2.24-5.492 7.4-7.888 7.4-1.123 0-2.521-0.9-3.106-1.99zm35.521-2.28c-1.985-2.83-1.96-9.16 0.044-11.16 3.348-3.35 8.071-1.27 10.271 4.51 1.113 2.93 0.692 3.82-2.842 6.01-4.559 2.83-5.86 2.94-7.473 0.64zm32.02-4.03c-0.87-1.31-1.68-4.15-1.81-6.3l-0.24-3.9 4.19 0.18c5.49 0.24 8.31 1.83 8.31 4.68 0 2.54-3.32 6.05-6.69 7.07-1.65 0.5-2.59 0.07-3.76-1.73zm34.51-2.45c-2.33-1.9-4.17-8.1-3.34-11.28 0.59-2.25 2.9-2.49 8.65-0.89 3.75 1.04 3.86 1.19 3.35 4.75-1.24 8.81-4.01 11.18-8.66 7.42zm32.38-9.73c-0.75-4.01 0.73-8.53 2.79-8.52 2.13 0.01 7.57 3.75 8.81 6.06 1.59 2.98-0.25 4.59-6.22 5.46l-4.69 0.68-0.69-3.68zm37.23-1.19c-0.37-0.37-0.67-3.07-0.67-6 0-4.45 0.3-5.33 1.78-5.33 4.11 0 9.26 6.85 7.87 10.48-0.6 1.54-7.62 2.21-8.98 0.85zm34.46-4.08c-1.87-1.58-1.98-2.21-1.05-6.21 1.4-6.09 2.57-7.28 6.33-6.47 4.92 1.05 5.8 2.24 5.04 6.85-1 5.98-2.12 7.58-5.37 7.58-1.57 0-3.8-0.79-4.95-1.75zm-370.63 36.04c13.2-6.42 24.438-12.04 24.97-12.5 0.578-0.49-3.901-5.76-11.12-13.06-13.83-14-16.59-17.8-23.58-32.42-3.9-8.19-6.02-14.64-9.39-28.69-5.72-23.8-7.84-30.54-12.58-39.99-6.77-13.52-15.87-21.09-23.14-19.26-5.98 1.5-5.66-2.8-5.66 74.67v70.91l2.32 1.52c1.28 0.83 5.22 2.71 8.75 4.17 13.6 5.6 19.44 7.39 22.43 6.85 1.65-0.3 13.8-5.79 27-12.2zm782-3.3c-0.34-0.55-1.04-0.99-1.56-0.99-1.08 0-1.27 3.33-0.24 4.36 0.94 0.94 2.57-2.12 1.8-3.37zm-907.05-8.84c-1.38-1.24-9.2-4.15-11.13-4.15-2.54 0-0.66 1.32 4.5 3.17 5.23 1.87 8.1 2.29 6.63 0.98zm848.3-70.2c245.68-35.84 296.37-42.44 354.07-46.09 18.8-1.19 19.31-1.28 18.71-3.3-0.33-1.13-0.88-3.55-1.21-5.37-1.08-5.94-4.72-7.55-23.82-10.55-19.64-3.07-23.52-3.16-54.81-1.18-55.26 3.48-57.46 3.56-62.55 2.47-7.9-1.69-10.83-5.47-10.22-13.18 0.11-1.52-0.25-2.75-0.81-2.75-2.43 0-103.65 6.13-124.11 7.52-57.69 3.92-107.56 8.28-120.5 10.56-5.36 0.94-12.56 4.59-14.16 7.18-0.32 0.52-1.41 5.78-2.42 11.7-3.45 20.24-7.17 21.64-9.41 3.54-1.06-8.6-1.41-9.5-3.6-9.5-3.52 0-7.57 5.08-8.83 11.06-1.34 6.44-4.61 12.54-8.08 15.08-2.49 1.82-19.56 5.12-33 6.37-8.52 0.79-11 1.33-11 2.41 0 0.49 3.84 5.2 8.54 10.47 10.79 12.12 14.74 14.36 25.71 14.52 3.17 0.05 39.84-4.89 81.5-10.96zm-20.55-25.15c-1.62-1.63-1.52-7.99 0.17-10.3 1.28-1.74 1.66-1.77 5.25-0.4 3.07 1.16 3.95 2.05 4.21 4.29 0.6 5.21-6.26 9.77-9.63 6.41zm42.76-2.36c-1.46-1.75-2.98-10.22-2.2-12.25 0.54-1.42 7.09-0.83 10.49 0.96 2.85 1.49 2.12 5.68-1.65 9.45-3.81 3.81-4.79 4.08-6.64 1.84zm-142.96 24.81c-0.01-1.35-11.94-10.44-13.17-10.03-0.65 0.22 1.7 2.73 5.23 5.59 6.22 5.03 7.95 6 7.94 4.44zm-2.5-25.25c-0.34-0.55-2.14-1-4-1s-3.66 0.45-4 1c-0.38 0.61 1.18 1 4 1 2.83 0 4.38-0.39 4-1zm34.75-2.63c2.75-0.8 2.05-2.39-1-2.27-4.23 0.15-7.55 1.31-8.05 2.81-0.36 1.06 0.39 1.21 3.42 0.67 2.14-0.38 4.67-0.92 5.63-1.21zm12.52-24.12c-1.92-12.69-2.28-14.08-3.31-13.04-0.73 0.73 3.72 25.79 4.58 25.79 0.36 0-0.2-5.74-1.27-12.75zm-75.27 2.22c42.51-4.27 57.97-6.03 59.13-6.75 1.09-0.67 0.23-8.52-1.17-10.79-0.32-0.53-9-0.93-19.84-0.93-14.91 0-21.74 0.45-30.19 1.99-12.19 2.22-43.15 9.4-43.94 10.19-0.28 0.28 0.4 2.56 1.5 5.07 1.95 4.39 2.15 4.54 5.77 4.14 2.06-0.23 14.99-1.55 28.74-2.92zm-77-96.89l40-3.09 0.3-6.18 0.29-6.18-4.79-0.82c-2.64-0.45-11.55-0.77-19.8-0.71-17.36 0.11-29.96 2.05-58.75 9.02-20.17 4.89-21.11 5.47-16.71 10.19 1.91 2.04 2.63 2.15 10.75 1.53 4.79-0.36 26.71-2.05 48.71-3.76zm371.18 310.7c-0.28-0.44-0.01-5.81 0.6-11.93 0.85-8.66 0.81-12.38-0.18-16.81-1.91-8.51-9.21-22.07-16.57-30.74-8.25-9.72-8.52-11.53-1.25-8.43 14.88 6.35 33.22 37.07 29.7 49.73-1.2 4.31-9.1 18.15-10.64 18.64-0.63 0.2-1.38-0.01-1.66-0.46zm15.9-10.45c-0.23-0.73-0.72-6.23-1.08-12.22-1.13-18.82-5.45-31.48-15.97-46.75-7.51-10.9-7.35-12.66 0.58-6.39 9.72 7.69 18.14 20.72 21.35 33.02 2.01 7.73 1.88 20.53-0.28 27.43-1.67 5.31-3.76 7.55-4.6 4.91zm-296.59-273.58c-0.02-17.73-3.21-33.52-9.48-46.91-3.4-7.25-5.83-10.74-11.65-16.73-4.05-4.16-10.2-9.27-13.67-11.34-3.48-2.08-6.4-4.22-6.5-4.77-0.28-1.49 9.23-1.83 13.74-0.48 6.02 1.78 13.41 10.06 19.31 21.62 8.29 16.25 18.26 44.69 18.26 52.09 0 4.46-5.75 13.27-8.67 13.27-0.97 0-1.33-1.82-1.34-6.75zm16.16-22c-0.51-0.97-4.16-9.63-8.12-19.25-8.35-20.3-14.23-30.73-22.28-39.53-6.72-7.34-7.52-9.98-2.5-8.26 8.88 3.05 16.5 10.72 24.21 24.34 7.18 12.7 11.38 23.8 12.15 32.14 0.94 10.1-0.84 15.52-3.46 10.56z" fill="#afafaf"/>
        <path id="path1530" d="m716.55 820.87c-2.47-0.69-86.46-25.39-186.63-54.9l-182.13-53.64-150.53 15.5c-138.32 14.25-153 15.59-180.87 16.52-16.686 0.56-35.512 1.47-41.837 2.02-19.361 1.69-31.46 3.18-32.322 3.98-0.452 0.42 6.347 6.2 15.109 12.83 17.419 13.2 23.241 19.01 25.037 25 3.784 12.64-1.964 23.04-13.697 24.8-11.667 1.75-47.637-10.12-124.64-41.16-21.08-8.49-41.62-16.15-45.65-17.03-4.41-0.95-16.12-1.92-29.34-2.42-23.78-0.89-28.07-1.72-32.63-6.28-4.4-4.4-4-9.14 1.28-15.14 3.52-4 3.93-4.91 2.75-6.05-0.77-0.74-9.72-5.95-19.9-11.6-22.74-12.61-34.57-20.44-42.84-28.35-9.19-8.8-10.89-14.15-7.56-23.9 3.67-10.77 15.69-16.12 35.9-15.98 13.82 0.09 20.27 1.65 42.5 10.28 27.61 10.71 31.12 11.55 33.04 7.95 0.61-1.14 2.87-19.7 5.02-41.25 4.28-42.86 6.35-55.78 11.51-71.73 4.05-12.56 7.78-17.56 15.58-20.91 4.5-1.94 6.52-2.2 14.3-1.83 9.86 0.46 14.55 2.22 20.94 7.83 7.71 6.77 13.22 19.73 17.61 41.47 4.36 21.54 11.35 38.82 22.47 55.52 11.166 16.77 23.002 25.87 36.733 28.22 6.172 1.05 7.266 0.88 34.337-5.54 36.962-8.76 29.064-7.17 100.69-20.3 95.67-17.53 130.63-22.83 171.27-25.97 26.28-2.03 26.71-2.13 27.86-6.18 0.82-2.88 0.49-3.91-2.87-9-5.81-8.8-31.3-42.19-66.89-87.64-72.32-92.35-166.11-215.45-169.22-222.11-3.578-7.66-4.653-14.74-4.176-27.47 0.484-12.89 2.075-17.86 7.81-24.39 5.358-6.11 14.768-9.64 25.643-9.64 24.084 0 63.923 28.26 133.86 94.99 6.05 5.78 27.88 26.71 48.5 46.52 43.61 41.9 47.51 45.57 59.34 55.8 12.03 10.41 20.11 15.69 24.01 15.68 1.72 0 11.91-1.82 22.63-4.04 26.12-5.4 37.27-6.91 51.16-6.94 17.07-0.02 31.65 3.32 35.54 8.16 0.59 0.73 1.37 5.38 1.74 10.33 1.18 15.69 2.44 24.28 4.16 28.2 1.64 3.73 1.68 3.75 2.44 1.3 1.4-4.59 1.06-21.49-0.54-26-2.8-7.95-1.16-13.86 2.5-9.01 0.95 1.26 3.2 5.94 5 10.4 2.38 5.87 4.48 9.23 7.62 12.21l4.34 4.09-3.92 5.26c-3.04 4.07-4.07 6.51-4.6 10.9-0.38 3.1-1.12 6.48-1.65 7.49-2.35 4.52-16.7 8.61-37.56 10.7-14.36 1.43-20.61 2.95-21.02 5.11-0.47 2.43 18.26 21 23.86 23.67 5.77 2.75 8.22 2.72 19.93-0.25 19.18-4.87 35.72-6.39 73.5-6.74 28.73-0.28 26.25-1.4 34 15.42 3.59 7.79 5.41 8.64 9.96 4.65 4.34-3.82 4.67-7.96 1.19-15.4-2.85-6.11-12.36-18.15-19.99-25.31-6-5.63-6.82-7.19-3.77-7.19 5.27 0 24.84 17.48 31.62 28.24 1.65 2.62 3.39 4.75 3.88 4.75 1.66 0.01-0.39-9.49-3.35-15.49-3.05-6.19-6.56-10.74-18.43-23.9-3.79-4.21-6.62-7.93-6.28-8.26 0.99-1 6.58 1.73 10.85 5.31 6.21 5.18 10.91 11.41 17.37 23 3.27 5.88 8.06 12.86 10.64 15.52 4.55 4.69 4.85 4.83 10.57 4.83 3.24 0 59.07-4.28 124.06-9.52 106.43-8.56 119.09-9.4 127.42-8.48 14.74 1.64 32.09 4.96 34.26 6.57 1.1 0.82 4 2.82 6.45 4.45l4.44 2.98h40.26c40.11 0 40.28 0 48.13 2.48 9.32 2.95 19.41 9.17 22.28 13.75 1.55 2.47 1.96 4.48 1.68 8.27-0.84 11.01-7.23 18.58-27.61 32.68-22.08 15.28-32.14 19.56-93.29 39.66-34.78 11.43-59.33 18.46-119.34 34.16-19.25 5.04-35.39 9.54-35.87 10.01-0.49 0.46-1.42 3.23-2.08 6.16s-1.61 5.33-2.12 5.33c-0.5 0-1.71-1.69-2.68-3.75-3.62-7.7-5.39-4.05-5.93 12.25-0.37 11.36-1.65 17.69-3.1 15.35-0.31-0.5-1.77-6.29-3.24-12.87-4.31-19.22-4.17-18.93-9.61-19.28-3.33-0.22-5.1 0.17-6.34 1.41-1.54 1.54-1.56 1.79-0.12 2.6 1.02 0.56 1.59 2.25 1.59 4.67 0 3.21-0.6 4.27-4 7s-4 3.78-4 7.01c0 5.42-1.8 10.11-5.31 13.84-2.89 3.06-5.35 4.23-12.19 5.76-2.82 0.63-2.89 0.75-1.11 2.04 1.03 0.76 4.37 1.9 7.42 2.53 4.7 0.98 6.42 0.88 11.41-0.63 5.11-1.55 6.85-1.63 13.31-0.62 4.1 0.63 10.2 2.08 13.56 3.21 6.88 2.32 37.42 17.36 38.37 18.91 0.34 0.54-1.11 2.09-3.23 3.42-2.11 1.33-5.09 3.94-6.62 5.79-2.91 3.52-9.61 14.56-9.61 15.84 0 0.41 4.84 4.48 10.75 9.05 13.47 10.4 21.85 18.39 24.33 23.18 1.5 2.89 1.92 5.79 1.92 13.21 0 8.43-0.22 9.62-1.97 10.56-2.5 1.34-26.32 7.06-28.72 6.89-1-0.07-3.83-0.69-6.31-1.38zm30.78-19.06c-1.37-4.19-3.49-4.54-2.96-0.49 0.48 3.64 2.2 6.43 3.31 5.33 0.58-0.58 0.45-2.41-0.35-4.84zm-31.31-33.37c1.12-1.83-7.69-8.18-9.22-6.64-0.41 0.42 1.05 2.29 3.25 4.15 4.28 3.63 5.06 3.96 5.97 2.49zm-4.55-33.51c1.01-5.52 0.26-9.27-1.33-6.7-1.13 1.84-2.71 12.14-2.03 13.24 1.13 1.82 2.23-0.33 3.36-6.54zm-37.42-5.58c7.7-0.55 14.8-1.26 15.77-1.56 4-1.26-0.02-2.22-14-3.31-8.12-0.64-16.18-1.34-17.9-1.55-3.78-0.47-5.37 0.9-5.37 4.65 0 3.32-0.03 3.32 21.5 1.77zm-722.21-25.94c87.818-13.53 172.4-26.07 222.71-33.01 16.23-2.24 37.83-5.23 48-6.63 46.14-6.38 69-13.71 69-22.11 0-3.05-3.13-9.21-8.62-16.96-6.35-8.97-8.42-10.32-15.76-10.32-14.34 0.01-105.32 15.1-238.62 39.58-75.776 13.91-82.222 15.6-149.28 39.05-14.74 5.15-27.81 9.37-29.06 9.37-1.24 0-13.65-3.86-27.56-8.57-13.92-4.71-25.5-8.36-25.75-8.12-0.25 0.25 6.62 3.54 15.26 7.32s23.85 10.53 33.8 15 18.9 8.19 19.88 8.25 39.685-5.72 86.001-12.85zm93.711-33.53c-0.685-0.83-1.481-3.6-1.769-6.16l-0.525-4.65 4.285 0.58c2.357 0.31 4.956 1.24 5.777 2.06 2.172 2.18 0.778 6.33-2.732 8.15-3.595 1.86-3.508 1.86-5.036 0.02zm34.161-4.05c-1.718-3.77-1.414-7.2 0.84-9.45 2.752-2.76 4.389-2.52 7.411 1.07 3.459 4.11 3.262 6.35-0.779 8.84-4.415 2.73-6.063 2.63-7.472-0.46zm31.937-4.6c-0.6-1.74-1.1-4.21-1.1-5.5 0-1.99 0.5-2.35 3.25-2.34 4.95 0.02 8.3 2.14 7.99 5.05-0.31 2.99-3.67 5.94-6.75 5.94-1.67 0-2.59-0.86-3.39-3.15zm36.27-0.03c-2.69-1.3-4.37-4.9-4.37-9.4 0-4.28 1.23-4.82 7-3.11 4.27 1.26 4.49 1.5 4.23 4.67-0.32 3.81-2.24 8.24-3.73 8.62-0.55 0.14-1.96-0.21-3.13-0.78zm32.67-7.8c-0.69-0.43-1.04-2.53-0.85-5.12 0.25-3.6 0.7-4.46 2.42-4.71 2.66-0.37 8.39 4.33 8.39 6.89 0 1.06-0.33 1.93-0.75 1.94-0.41 0.01-2.39 0.4-4.4 0.87-2 0.47-4.17 0.52-4.81 0.13zm36.16-4.22c-1.47-1.48-1.59-9.44-0.15-10.33 1.58-0.98 5.7 2.15 7.55 5.71 1.54 2.98 1.53 3.25-0.17 4.49-2.25 1.65-5.64 1.71-7.23 0.13zm35.43-2.99c-2.72-1.01-2.83-1.28-2.25-5.59 0.95-6.88 3.71-8.85 8.69-6.19 2.27 1.21 2.58 6.12 0.64 9.96-1.45 2.88-3.07 3.29-7.08 1.82zm-371.43 35.63c13.37-6.5 24.702-12.15 25.19-12.57 0.488-0.41-4.12-5.55-10.24-11.41-19.41-18.6-27.29-33.4-35.17-66.01-5.42-22.47-7.18-27.95-12.1-37.71-4.07-8.04-7.43-12.4-12.28-15.92-4.48-3.25-10.76-3.8-14.37-1.27l-2.23 1.56v144.01l6.75 3.08c13.75 6.28 21.59 8.82 25.95 8.43 2.79-0.25 12.39-4.36 28.5-12.19zm781.62-2.27c0.21-1.41-0.21-2.17-1.19-2.17-1.97 0-2.79 1.41-2.01 3.45 0.85 2.19 2.81 1.41 3.2-1.28zm-906.82-10.04c0-0.75-10.55-5.13-12.35-5.13-0.36 0-0.65 0.59-0.65 1.32s2.14 2.04 4.75 2.9c5.51 1.83 8.25 2.14 8.25 0.91zm812.56-64.59c24.72-3.54 74.42-10.76 110.44-16.03 167.6-24.54 229.51-32.29 282.61-35.39 7.76-0.46 14.57-1.11 15.13-1.46 0.69-0.43 0.59-1.88-0.31-4.4-0.74-2.07-1.36-4.47-1.38-5.33-0.09-3.24-5.82-6-15.44-7.44-5.12-0.77-13.72-2.15-19.11-3.07-9.09-1.55-11.46-1.55-33.39-0.06-44.24 3.02-70.94 4-75.03 2.78-5.21-1.56-7.28-4.24-7.85-10.13l-0.48-5.01h-5.36c-16.61 0-161.79 9.64-203.89 13.54-47.11 4.36-50.32 5.61-52.51 20.47-1.59 10.72-3.79 17.99-5.45 17.99-1.77 0-2.29-1.68-3.52-11.35-1.16-9.2-1.38-9.65-4.62-9.65-3.78 0-6.7 3.97-9.22 12.57-1.75 5.92-3.17 8.65-5.99 11.45-3.47 3.45-4.34 3.77-14.69 5.38-6.05 0.93-15.61 2.22-21.25 2.85-6.29 0.71-10.25 1.59-10.25 2.28 0 1.71 18.83 21.33 22.09 23.01 3.03 1.57 9.06 3.19 12.47 3.36 1.14 0.05 22.29-2.81 47-6.36zm15.63-30.41c-0.87-0.55-1.2-2.48-1-5.73 0.27-4.25 0.62-4.95 2.62-5.23 2.99-0.43 7.19 2.34 7.19 4.74 0 3.91-5.88 8.06-8.81 6.22zm40.91-5.28c-0.6-1.74-1.1-4.66-1.1-6.5 0-3.02 0.29-3.35 2.85-3.35 4.69 0 9.15 1.98 9.15 4.06 0 2.51-5.75 8.94-8 8.94-1.12 0-2.22-1.2-2.9-3.15zm-141.1 28.23c0-1.28-12.45-12.08-13.93-12.08-2.52 0-0.36 3.16 5.43 7.93 5.77 4.76 8.5 6.09 8.5 4.15zm-3-25.58c0-1.12-1.16-1.5-4.5-1.5-4.2 0-5.42 0.74-3.83 2.33 0.37 0.37 2.39 0.67 4.5 0.67 2.74 0 3.83-0.43 3.83-1.5zm35.87-3.94c1.28-1.28 1.28-1.57 0.06-2.02-2.18-0.82-11.21 1.77-11.74 3.36-0.37 1.14 0.55 1.29 4.87 0.78 2.93-0.35 5.99-1.3 6.81-2.12zm13.13-11.2c0-1.74-2.74-20.37-3.55-24.11-0.69-3.2-2.45-2.8-2.45 0.55 0 1.55 0.9 7.71 2 13.7 1.1 5.98 2 11.02 2 11.19s0.45 0.31 1 0.31 1-0.74 1-1.64zm-82-8.81c47.7-4.91 63.52-6.78 64.42-7.62 0.55-0.53 0.43-3.06-0.32-6.4-1.02-4.56-1.68-5.64-3.71-6.15-4.65-1.17-39.6 0.31-48.39 2.05-13.71 2.7-43.44 9.71-44.2 10.42-0.38 0.35 0.29 2.78 1.5 5.39 1.77 3.83 2.69 4.75 4.7 4.74 1.38 0 13.08-1.1 26-2.43zm-77.78-97.08c24.78-1.94 45.45-3.77 45.92-4.06 1.6-0.99 0.99-11.06-0.75-12.51-2.22-1.84-30.67-2.52-41.61-0.98-17.22 2.4-56.99 11.31-59.53 13.33-1.7 1.35-1.58 2.05 0.83 5.11 2.64 3.37 0.23 3.41 55.14-0.89zm376.78 306.05c0-2 0.47-6.69 1.05-10.41 2.22-14.26-4.53-31.33-18.66-47.24-2.41-2.72-4.39-5.38-4.39-5.91 0-2.02 3.86-0.83 9.05 2.8 13.34 9.32 26.72 34.01 24.59 45.38-0.75 4-8.59 18.06-10.39 18.63-0.84 0.26-1.25-0.79-1.25-3.25zm15.56-13.27c-2.48-27.78-5.69-37.56-17.98-54.75-5.8-8.11-4.43-8.87 3.36-1.87 11.04 9.93 17.93 22.61 20.15 37.13 1.3 8.51 0.41 17.87-2.28 23.75-1.81 3.98-2.61 2.94-3.25-4.26zm-295.96-260.99c-0.33-0.33-0.6-4.96-0.6-10.3 0-17.14-3.28-31.71-10.18-45.1-6.08-11.84-13.74-19.53-28.2-28.33-3.34-2.03-2.14-3.5 2.88-3.51 11.09-0.04 19.33 7.53 28.42 26.13 3.33 6.79 8.3 19.1 11.05 27.35 5.99 17.93 6.39 23 2.33 29.27-2.7 4.15-4.56 5.63-5.7 4.49zm16.04-28.04c-0.26-0.43-3.92-9.09-8.12-19.25-8.12-19.65-13.72-29.65-22.24-39.69-2.9-3.43-5.28-6.72-5.28-7.32 0-3.01 13.3 5.09 17.91 10.91 4.86 6.14 14.89 25.02 17.58 33.08 1.82 5.47 2.51 9.69 2.51 15.3 0 6.83-0.86 9.39-2.36 6.97z" fill="#8f8f8f"/>
        <path id="path1528" d="m536.05 767.35c-102.3-30.19-187.51-54.91-189.36-54.93s-71.08 6.93-153.85 15.46c-94.28 9.71-154.5 15.5-161.24 15.5-15.251 0-48.825 1.78-67.047 3.55-19.925 1.95-23.005 2.46-22.978 3.82 0.013 0.62 7.669 6.9 17.014 13.97 10.67 8.06 18.092 14.44 19.948 17.13 7.014 10.2 5.536 23.06-3.289 28.64-2.779 1.76-4.369 1.96-12.195 1.53-15.183-0.82-43.297-10.37-115.5-39.21-49.78-19.88-50.8-20.15-80-21.04-25.87-0.79-32.24-2.98-33.63-11.51-0.47-2.89 0.05-4.15 3.54-8.53 2.25-2.83 4.09-5.6 4.09-6.16s-8.66-5.83-19.25-11.72c-31.16-17.32-45.15-27.3-50.84-36.29-3.71-5.84-3.81-10.99-0.34-17.94 4.78-9.59 16.12-14.24 34.75-14.24 11.63 0 22.82 2.68 41.68 10.01 7.43 2.88 17.27 6.55 21.87 8.15 7.76 2.71 8.53 2.8 10.73 1.36 1.3-0.85 2.59-2.56 2.85-3.79 0.27-1.23 2.11-18.87 4.09-39.2 4.71-48.37 8.18-67 15.12-81.38 4.44-9.19 14.13-13.81 26.95-12.86 8.59 0.64 15.06 3.65 21.2 9.85 7.31 7.38 10.34 15.46 17.68 47.17 4.68 20.19 14.92 41.81 26.99 56.97 9.27 11.64 23.725 19.72 35.295 19.72 3.082 0 15.084-2.34 28.056-5.45 34.036-8.19 35.96-8.58 101.67-20.58 98.639-18.03 132.36-23.13 175.26-26.53 10.86-0.86 20.74-1.77 21.95-2.01 2.65-0.54 4.12-6.32 2.51-9.87-1.52-3.31-34.3-46.67-59.78-79.06-32.26-41-62.1-79.56-106.02-137-78.721-102.95-74.165-96.4-76.489-109.91-1.593-9.26-0.699-22.65 1.983-29.72 5.624-14.8 22.567-22.03 40.627-17.32 17.4 4.53 49.359 26.2 83.959 56.92 14.33 12.72 52.82 49.1 87.87 83.03 46.36 44.87 63.49 60.4 75.34 68.27 6.89 4.57 7.87 4.55 33.06-0.73 41.43-8.67 63.42-9.14 79.61-1.73 6.2 2.84 5.57 0.84 7.62 24.01 1.29 14.46 3.37 21.8 5.76 20.33 1.94-1.2 2.48-17.84 0.8-25.04-1.91-8.28-2.03-12.93-0.31-12.38 1.33 0.42 2.55 2.65 8.23 14.97 2.47 5.36 4.46 8.24 6.54 9.46 3.72 2.2 3.72 2.99 0 7.5-3.29 3.99-5.01 7.81-5.02 11.15-0.01 1.2-0.46 3.81-1.01 5.8-1.82 6.53-9.74 8.94-43.85 13.34-11.92 1.54-16.14 2.7-16.14 4.43 0 1.34 11.71 14.19 17.18 18.86 9.9 8.45 12.96 8.86 32 4.31 16.33-3.91 28.56-5.02 63.56-5.75l29.23-0.62 3.31 3.51c1.82 1.93 3.94 5.43 4.72 7.78 1.69 5.15 6.49 12.03 8.37 12.03 2.12 0 6.68-4 7.74-6.78 2.47-6.49-5.6-20.51-19.96-34.65-4.43-4.36-7.82-8.29-7.54-8.74 0.87-1.42 7.42 1.99 13.88 7.23 6.63 5.38 12.79 12.11 18.94 20.69 2.07 2.88 4.01 5.25 4.31 5.25s0.3-2.67 0-5.92c-0.75-8.28-5.12-15.93-16.1-28.14-11.61-12.93-12.36-13.94-10.37-13.94 2.8 0 11.15 6.46 15.7 12.15 2.49 3.12 7.01 10.06 10.03 15.43 6.09 10.83 13.68 19.87 17.48 20.82 1.36 0.34 55.92-3.7 121.25-8.98 128.86-10.42 129.04-10.42 152.77-6.43 10.1 1.7 13.87 2.79 16.88 4.85 9.82 6.71 5.46 6.14 47.12 6.16 20.9 0 40.55 0.42 43.66 0.93 14.49 2.38 30.3 12.47 31.48 20.1 0.81 5.19-1.15 11.11-5.67 17.14-4.62 6.15-10.52 10.92-28.53 23.03-15.11 10.17-26.26 14.95-66.91 28.73-46.61 15.79-72.37 23.3-142.53 41.56-16.22 4.22-30.49 8.31-31.7 9.08-1.33 0.85-2.47 2.91-2.88 5.17-1.17 6.49-2.03 7.13-4.01 2.97-1.84-3.85-3.45-4.62-5.15-2.46-0.54 0.68-1.26 7.01-1.6 14.05-0.6 12.3-1.82 18.19-3.05 14.7-0.29-0.83-1.67-6.68-3.08-13-4.22-19.11-3.33-17.46-9.69-17.8-6.62-0.35-9.28 1.55-6.48 4.64 1.7 1.88 2.16 5.88 0.88 7.7-0.41 0.58-2.12 2.01-3.8 3.19-2.67 1.86-3.2 3.04-4.15 9.15-0.66 4.25-1.97 8.27-3.34 10.19-2.47 3.47-8.93 6.87-13.14 6.9-4.02 0.04-4.29 1.72-0.59 3.68 2.38 1.27 5.21 1.69 10.28 1.53 23.08-0.71 26.09-0.6 31.5 1.15 7.73 2.51 41.01 18.85 40.97 20.12-0.02 0.57-2.05 2.27-4.52 3.77-2.67 1.62-5.6 4.58-7.22 7.3-1.5 2.51-3.92 6.43-5.38 8.7-1.46 2.26-2.45 4.6-2.21 5.2 0.24 0.59 4.56 4.23 9.58 8.08 15.78 12.08 20.58 16.33 23.95 21.24 3.04 4.41 3.31 5.46 3.66 14.29 0.31 7.66 0.09 9.79-1.13 10.81-1.56 1.29-25.99 8.17-28.7 8.08-0.82-0.03-85.2-24.76-187.5-54.95zm212.09 35.87c-0.36-2.28-0.9-4.53-1.18-5-0.98-1.57-3.41-0.86-3.41 1.01 0 3.39 2.18 8.15 3.73 8.15 1.23 0 1.4-0.81 0.86-4.16zm-31.59-35.26c0-1.62-7.93-7.77-9.4-7.28-2.28 0.76-1.41 2.66 2.56 5.58 4.58 3.37 6.84 3.93 6.84 1.7zm-5.66-27.02c0.3-0.78 0.86-4.16 1.23-7.5 0.58-5.06 0.44-6.06-0.83-6.06-1.93 0-2.46 1.42-3.31 8.93-0.57 5.06-0.43 6.07 0.84 6.07 0.83 0 1.77-0.65 2.07-1.44zm-31.19-11.6c11.64-1.17 14.44-1.8 13.2-2.97-1.59-1.52-38.83-4.67-39.6-3.35-0.28 0.47-0.83 2.32-1.21 4.11l-0.7 3.25h8.98c4.93 0 13.63-0.47 19.33-1.04zm-728.38-25.41c92.685-14.29 158.59-24.08 215.73-32.04 22-3.07 48.1-6.7 58-8.08 39.77-5.54 61.64-12.01 66.24-19.6 1.39-2.29 1.42-3.04 0.21-5.98-2.67-6.48-12.94-20.68-16.57-22.93l-3.59-2.22-14.27 1.68c-27.54 3.22-66.65 9.73-175.52 29.2-72.219 12.92-108.47 19.79-121.5 23.03-18.012 4.47-46.458 13.44-77.9 24.56l-30.9 10.93-8.69-2.5c-4.79-1.37-18.33-5.86-30.1-9.97-35.95-12.56-34.13-11.26 13.16 9.4 17.84 7.79 33.55 14.77 34.93 15.52s4.2 1.38 6.27 1.41c2.07 0.02 40.096-5.56 84.499-12.41zm93.286-37.3c-1.601-5.77-1.407-6.25 2.513-6.25 4.151 0 7.435 1.5 7.435 3.4 0 2.46-4.089 6.6-6.526 6.6-1.899 0-2.591-0.76-3.422-3.75zm35.914-0.32c-0.607-1.13-1.141-3.37-1.186-4.96-0.184-6.46 5.868-8.24 9.23-2.72 2.414 3.96 2.234 4.64-1.985 7.5-4.084 2.76-4.669 2.78-6.059 0.18zm32.191-3.68c-0.51-0.97-1.23-3.22-1.62-5.01-0.87-4.04 0.63-4.81 6.36-3.27 3.35 0.9 4.1 1.54 4.1 3.49 0 2.45-4.13 6.54-6.6 6.54-0.73 0-1.74-0.79-2.24-1.75zm33.44-3.5c-0.8-1.24-1.76-3.94-2.13-5.99-0.82-4.5 0.6-5.42 6.26-4.08 4.3 1.02 4.86 2.42 3.29 8.24-0.9 3.35-1.53 4.08-3.53 4.08-1.44 0-3.04-0.93-3.89-2.25zm34.05-7.23c-0.91-2.36-0.78-5.77 0.28-7.43 1.22-1.93 6.62 0.29 8.8 3.61 1.94 2.97 1.02 3.99-4.33 4.85-3.32 0.53-4.23 0.33-4.75-1.03zm35.96-4.11c-0.95-2.48-0.71-7.23 0.4-7.92 2.78-1.72 7.99 3.48 7.99 7.96 0 2.2-7.54 2.17-8.39-0.04zm34.97-2.73c-1.65-1.21-1.68-1.72-0.41-6.24 1.5-5.29 2.86-6.15 7.16-4.51 2.93 1.11 3.21 2.58 1.62 8.32-0.88 3.17-1.46 3.75-3.8 3.75-1.52 0-3.58-0.6-4.57-1.32zm-373.15 38.46c12.14-5.97 23.535-11.42 25.323-12.12 1.787-0.7 3.25-1.78 3.25-2.41s-4.988-6.09-11.083-12.13c-12.82-12.7-17.07-18.52-24.1-32.98-4.21-8.66-6.09-14.52-10.91-34.12-4.79-19.47-6.7-25.46-10.78-33.82-8.57-17.53-18.24-24.66-27.18-20.04l-2.95 1.53v145.71l8.75 3.76c14.02 6.03 21.51 8.44 24.68 7.93 1.61-0.26 12.86-5.35 25-11.31zm784.39-3.89c-0.19-1.64-0.92-2.75-1.82-2.75-0.89 0-1.63 1.11-1.81 2.75-0.26 2.23 0.08 2.75 1.81 2.75 1.74 0 2.08-0.52 1.82-2.75zm-906.12-9.85c0.4-1.2-9.63-5.4-12.87-5.4-3.53 0-1.36 2.42 4.25 4.73 5.67 2.33 8.01 2.51 8.62 0.67zm811.37-64.35c22.79-3.28 72.48-10.51 110.43-16.07 162.51-23.82 225.17-31.72 280-35.29 21.27-1.38 19.83-0.64 17.65-9.1-1.95-7.57-3.85-8.5-23.79-11.68-20.76-3.31-24.14-3.4-53.72-1.46-43.93 2.88-61.06 3.57-65.04 2.62-5.85-1.4-9.04-5.09-9.07-10.49-0.01-2.43-0.29-4.68-0.6-4.99-0.32-0.32-19.67 0.55-43 1.92-95.13 5.62-164.82 10.84-193.29 14.48-12.89 1.64-15.41 2.27-18.88 4.67-5.49 3.81-6.32 5.51-7.69 15.77-1.37 10.28-3.54 16.49-5.18 14.86-0.58-0.59-1.68-5.18-2.43-10.2-1.54-10.37-1.84-11.09-4.5-11.09-3.66 0-7.94 5.11-9.58 11.45-2.01 7.73-4.8 13.12-7.82 15.1-2.54 1.67-18.11 4.51-35 6.39-5.47 0.61-10.14 1.31-10.39 1.56-0.6 0.6 5.82 8.41 13.83 16.82 7.18 7.53 13.5 10.58 22.07 10.64 2.51 0.02 23.21-2.64 46-5.91zm15.6-31.72c-0.96-0.97-0.79-7.59 0.24-9.22 1.89-2.98 9.59 1.3 8.4 4.66-1.49 4.21-6.4 6.8-8.64 4.56zm42.4-3.21c-0.55-1.03-1.13-3.84-1.29-6.25l-0.28-4.37 3.77 0.22c2.06 0.12 4.63 0.68 5.69 1.25 1.66 0.89 1.78 1.47 0.89 4.04-0.99 2.82-5.12 6.99-6.95 6.99-0.45 0-1.28-0.85-1.83-1.88zm-142.07 26.43c0-1.83-12.15-11.65-14-11.31-2.67 0.5-1.62 2.06 5.38 7.94 6.56 5.51 8.62 6.31 8.62 3.37zm-2.43-24.67c0.95-1.53-1.45-2.85-5.2-2.87-3.07-0.01-5.98 2.04-4.69 3.33 1.1 1.1 9.16 0.73 9.89-0.46zm34.18-3c1.24-0.46 2.25-1.52 2.25-2.36 0-1.74-2.59-1.92-8.33-0.59-4.58 1.07-5.1 1.5-4.3 3.57 0.47 1.25 1.42 1.44 4.37 0.9 2.07-0.37 4.78-1.06 6.01-1.52zm14.6-12.49c-0.75-9.61-3.85-25.65-5.03-26.1-0.77-0.3-1.65-0.29-1.96 0.01-0.5 0.51 3.02 22.74 4.28 27 0.68 2.32 2.91 1.57 2.71-0.91zm-87.24-7.91c16.79-1.66 58.76-6.18 65.77-7.08l4.39-0.57-0.57-5.48c-0.92-8.92 0.07-8.6-25.15-8.11-23.74 0.47-25.82 0.78-57.3 8.47-8.38 2.04-15.25 4.02-15.25 4.38s0.92 2.73 2.05 5.28c1.98 4.47 2.19 4.63 6.36 4.63 2.37 0 11.24-0.69 19.7-1.52zm-73.11-97.62c23.38-1.75 43.52-3.55 44.75-4 1.99-0.72 2.25-1.5 2.25-6.78 0-3.28-0.46-6.25-1.03-6.61-0.57-0.35-5.61-1.13-11.19-1.74-17.46-1.9-47.83 2.26-80.78 11.06-11.82 3.15-13.12 4.62-8.51 9.6 2.32 2.5 3.06 2.73 7.3 2.21 2.59-0.31 23.84-2 47.21-3.74zm377.39 304.12c1.74-10.88 1.82-18.63 0.27-24.7-2.31-8.97-7.71-19.06-15.16-28.28-3.57-4.43-6.5-8.47-6.5-8.98 0-1.99 6.35 1.44 11.72 6.34 10.55 9.62 20.46 27.98 20.59 38.14 0.04 3.6-0.73 6.54-2.75 10.5-5.76 11.27-9.35 14.33-8.17 6.98zm15.2-16.09c-1.37-19.91-4.77-30.56-14.61-45.77-3.33-5.15-5.8-9.64-5.48-9.96s4.06 3 8.3 7.39c11.85 12.27 17.2 24.86 17.2 40.47 0 7.46-2.28 17.98-3.89 17.98-0.45 0-1.13-4.55-1.52-10.11zm-295.59-261.72c0-9.72-2.25-26.83-4.6-34.94-5.69-19.63-14.71-31.57-32.4-42.86l-4.5-2.87 5.83-0.31c7.41-0.38 12.98 2.65 18.64 10.14 10.6 14.05 26.26 55.61 24.67 65.51-0.55 3.42-4.99 10.16-6.69 10.16-0.52 0-0.95-2.18-0.95-4.83zm13.9-27.86c-1.14-2.65-3.87-9.31-6.07-14.81-7.64-19.19-13.75-29.72-24.57-42.42l-3.76-4.41 2.84 0.7c8.01 1.99 15.68 9.81 23.56 24.03 7.72 13.93 11.22 23.61 11.85 32.69 0.65 9.51-0.85 11.15-3.85 4.22z" fill="#707070"/>
        <path id="path1526" d="m719.55 821.24c-1.37-0.55-85.55-25.47-187.05-55.38l-184.56-54.37-154.44 15.93c-126.12 13-157.24 15.92-169.66 15.94-25.074 0.03-80.872 4.27-82.901 6.3-1.078 1.07 0.575 2.54 16.443 14.56 22.684 17.18 25.832 21.32 24.909 32.83-1.067 13.29-10.292 17.88-27.715 13.77-18.695-4.41-53.464-16.92-109.53-39.41-23-9.23-43.19-16.73-47.5-17.63-4.53-0.96-16.21-1.88-29.5-2.33-23.4-0.8-26.88-1.49-31.16-6.2-2.05-2.26-2.71-4.39-2.45-7.98 0.06-0.89 1.91-3.66 4.11-6.16s4-4.97 4-5.5-9.11-6.03-20.25-12.23c-25.36-14.12-38.92-23.3-46.63-31.54-8.21-8.77-9.11-14.76-3.54-23.58 3.95-6.27 10.56-9.84 21.86-11.84 15.57-2.75 26.96-0.56 58.21 11.16 25.08 9.42 28.1 10.01 30.29 5.91 0.55-1.03 2.61-18.24 4.57-38.24 3.98-40.46 5.41-50.73 9.07-65.17 3.78-14.93 7-22.19 11.58-26.11 9.62-8.23 27.36-8.12 38.36 0.24 9.48 7.21 13.73 16.4 19.5 42.17 5.51 24.59 11.74 40.03 22.88 56.69 10.98 16.41 23.341 25.84 37.17 28.36 6.196 1.13 7.15 1 25.933-3.52 36.022-8.67 45.303-10.58 95-19.61 27.225-4.95 57.597-10.52 67.497-12.39 39.17-7.38 93.74-14.74 130-17.53 8.32-0.64 14.5-1.58 15.23-2.31 0.68-0.67 1.5-2.59 1.83-4.25 0.53-2.64-0.45-4.52-7.59-14.49-10.35-14.47-30.41-40.62-62.47-81.45-60.2-76.69-165.7-214.97-168.94-221.45-3.379-6.74-4.859-14.33-4.88-25.02-0.035-17.77 4.676-27.02 16.785-32.94 6.218-3.04 7.875-3.41 15.5-3.46 7.422-0.04 9.583 0.38 16.538 3.23 22.137 9.06 53.807 32.52 93.477 69.24 16.79 15.54 25.46 23.79 75.02 71.39 42.95 41.25 46.86 44.92 57.86 54.33 10.98 9.4 19.74 15.18 23.01 15.18 1.45 0 11.19-1.76 21.63-3.9 10.45-2.14 23.73-4.65 29.5-5.58 13.55-2.18 34.23-2.23 43.27-0.12 7.38 1.72 14.59 4.98 15.24 6.89 0.22 0.66 1.07 8.43 1.88 17.25 1.45 15.89 3.69 24.93 5.98 24.17 2.73-0.91 3.52-20.48 1.14-28.31-1.85-6.11-1.97-10.72-0.26-10.16 0.69 0.23 3.16 4.88 5.5 10.33 3.11 7.26 5.31 10.89 8.22 13.53l3.97 3.61-3.9 5.23c-3.24 4.35-4.01 6.32-4.59 11.73-0.63 5.88-1 6.7-3.82 8.43-5.62 3.46-15.75 5.92-32.58 7.91-20.06 2.37-24.05 3.37-24.05 6.01 0 2.83 19.55 22.18 25.07 24.8 5.87 2.8 7.12 2.75 21.57-0.78 6.65-1.62 15.86-3.42 20.47-4 10.32-1.3 62.42-3.4 69.66-2.81 6.4 0.53 10.16 3.64 12.79 10.61 2.91 7.65 6.16 12.16 8.81 12.16 2.97 0 7.35-4.01 8.23-7.55 1.76-7.01-5.35-19.2-19.93-34.2-8.78-9.04-8.38-10.58 1.1-4.25 6.95 4.64 17.65 15.64 22.88 23.52 4.81 7.25 6.84 7.32 5.95 0.23-1.23-9.77-5.71-17-21.45-34.64-3.49-3.91-5.83-7.11-5.2-7.11 5.31 0 16.6 12.15 24.55 26.43 6.72 12.06 13.51 20.05 18 21.17 1.78 0.44 52.53-3.22 124.82-9.02 115.51-9.27 122.35-9.72 132-8.6 15.34 1.78 30.79 4.82 33.11 6.53 1.14 0.83 3.84 2.74 6 4.25l3.92 2.74 43.08 0.5 43.07 0.5 7.59 3.27c12.94 5.59 19.93 12.2 19.9 18.84-0.01 4.17-4.06 12.15-8.95 17.65-3.85 4.33-27.09 21.22-37.35 27.14-7.2 4.16-31.59 13.29-66.03 24.73-40.49 13.45-57.7 18.45-116.41 33.85-25.16 6.6-46.41 12.38-47.23 12.85-0.82 0.48-2.18 3.27-3.03 6.22l-1.55 5.35-2.23-3.78c-4.38-7.42-7.17-2.43-7.21 12.88-0.01 6.05-0.45 11.66-0.96 12.47-1.2 1.9-1.24 1.78-4.6-13.47-1.45-6.6-3.06-12.79-3.57-13.74-1.82-3.42-11.18-3.5-13.98-0.13-1.1 1.33-1.03 1.78 0.4 2.83 1.06 0.78 1.71 2.61 1.71 4.81 0 2.99-0.56 3.91-3.5 5.73-3.64 2.25-4.08 3.29-4.83 11.36-0.73 7.93-6.62 13.8-15.14 15.08-10.74 1.61-0.52 7.2 11.1 6.07 14.27-1.38 21.57-1.03 29.37 1.38 9.07 2.79 40 18.09 40 19.77 0 0.66-0.85 1.47-1.89 1.8-4.44 1.41-17.9 20.04-16.71 23.13 0.25 0.66 6.06 5.51 12.9 10.77 14.4 11.08 22.36 19.28 23.22 23.92 0.32 1.77 0.45 6.99 0.29 11.61l-0.31 8.4-14 3.83c-15.43 4.23-14.97 4.16-18.5 2.74zm28.67-19.48c-1.07-4.67-3.23-6.71-4.65-4.41-0.86 1.4 0.59 7.78 2.22 9.79 0.71 0.87 1.41 0.95 2.26 0.24 0.93-0.77 0.97-2.13 0.17-5.62zm-30.67-34.46c0-1.22-8.59-6.92-10.43-6.92-3.11 0-1.45 3.56 3.12 6.72 3.53 2.45 4.99 2.96 5.99 2.13 0.73-0.6 1.32-1.47 1.32-1.93zm-5.12-32.89c1.12-6.61 0.52-8.79-2.15-7.76-2.05 0.79-4.27 14.77-2.51 15.86 2.07 1.28 3.48-1.17 4.66-8.1zm-28.62-5.19c8.66-0.95 11.91-2.01 10.49-3.43-0.7-0.7-28.56-3.37-35.45-3.39l-6.21-0.02-0.64 3.43c-0.36 1.89-0.37 3.89-0.02 4.44 0.71 1.15 16.67 0.63 31.83-1.03zm-742.91-23.3c112.03-17.29 190.3-28.84 258.15-38.07 50.63-6.89 65.49-9.74 80.83-15.49 7.44-2.79 12.67-7.27 12.67-10.86 0-3.7-8.13-17.23-14.03-23.35l-4.9-5.08-9.29 0.61c-20.33 1.33-90.22 12.98-226.78 37.78-82.59 15-95.175 18.22-157.55 40.39-14.75 5.24-28.04 9.53-29.54 9.53-2.98 0-18.29-4.9-49.8-15.92-19.11-6.69-25.21-8.26-18.36-4.71 1.62 0.83 18.87 8.47 38.34 16.97 19.48 8.51 37.44 16.4 39.91 17.54 2.48 1.14 4.88 2.08 5.35 2.09 0.46 0.02 34.21-5.13 74.996-11.43zm104.82-37.25c-0.527-0.99-1.117-3.14-1.311-4.79-0.307-2.63-0.011-3.04 2.349-3.32 3.474-0.4 6.8 1.39 6.8 3.66 0 4.25-6.098 7.72-7.838 4.45zm34.873-3.23c-0.57-1.06-1.035-3.22-1.035-4.8 0-5.55 4.461-7.04 7.927-2.63 2.825 3.59 2.604 5.62-0.832 7.65-3.721 2.2-4.787 2.16-6.06-0.22zm31.892-4.75c-0.56-1.48-0.89-3.61-0.72-4.75 0.23-1.66 0.88-2 3.29-1.71 6.47 0.76 8.18 3.47 4.5 7.15-2.84 2.84-5.84 2.55-7.07-0.69zm34.6-1.7c-2.5-2.49-3.59-8.84-1.72-9.99 0.9-0.56 8.02 0.87 8.95 1.79 0.9 0.91-2.14 9.88-3.51 10.33-0.65 0.22-2.33-0.73-3.72-2.13zm34.15-6.27c-0.37-0.37-0.68-2.4-0.68-4.51 0-4.53 2.11-5.11 6.37-1.76 3.14 2.47 3.39 4.58 0.63 5.36-1.1 0.31-2.82 0.8-3.82 1.08s-2.13 0.2-2.5-0.17zm36.04-3.96c-1.07-1.07-0.87-9.38 0.23-9.38 1.93 0 6.05 4.58 6.3 7 0.21 2.12-0.21 2.54-2.78 2.79-1.67 0.17-3.36-0.02-3.75-0.41zm34.85-3.71c-1.65-1.21-1.79-1.98-0.99-5.79 0.83-3.93 1.24-4.42 4.01-4.69 4.52-0.44 5.67 1.48 4.11 6.89-1.4 4.84-3.78 6.04-7.13 3.59zm-378.95 41.12c9.29-4.63 20.82-10.17 25.63-12.32 4.815-2.14 8.753-4.37 8.753-4.96s-4.452-5.21-9.893-10.27c-12.53-11.63-17.93-18.81-25.13-33.41-4.95-10.03-6.48-14.63-10.97-33-5.47-22.37-7.77-29.46-12.77-39.35-7.71-15.23-19.89-22.48-27.6-16.41l-2.64 2.07v143.81l2.32 1.52c1.28 0.83 5.22 2.71 8.75 4.17 13.87 5.72 19.46 7.41 23.05 7 1.99-0.23 11.22-4.21 20.5-8.85zm789.88-6.31c0-2.33-0.49-3.05-2.25-3.3-1.89-0.27-2.25 0.14-2.25 2.58 0 3.36 0.78 4.42 2.95 4.01 0.99-0.19 1.55-1.39 1.55-3.29zm-906.69-10.23c-0.37-1.95-12.24-6.68-14.55-5.8-2.48 0.95 0.31 3.89 5.4 5.69 6.58 2.31 9.58 2.35 9.15 0.11zm790.53-60.81c13.84-1.96 69.49-10.03 123.66-17.94 170.56-24.9 227.18-32.17 277-35.56 26.91-1.83 30.55-2.31 30.17-3.98-3-13.14-5.11-15.4-15.81-16.91-3.77-0.54-12.6-1.91-19.61-3.05-12.33-2.01-13.43-2.03-33.5-0.58-32.35 2.32-71.41 3.96-75.63 3.16-5.89-1.1-8.62-4.44-8.62-10.54v-5.04h-4.25c-12.13 0-146.01 8.61-186.75 12.02-50.54 4.22-60.43 5.72-66.53 10.11-5.08 3.65-4.88 3.18-6.94 16.21-2.56 16.19-4.6 17.58-6.46 4.42-1.64-11.59-1.72-11.76-5.23-11.76-4.34 0-8.41 4.71-9.92 11.48-1.46 6.5-4.51 12.16-7.94 14.7-1.81 1.34-7.38 2.56-19.5 4.3-9.34 1.34-18.78 2.56-20.98 2.72-2.91 0.22-4 0.74-4 1.92 0 2.19 14.91 19.19 19.79 22.58 2.14 1.48 6.44 3.24 9.55 3.91 3.12 0.67 5.81 1.26 6 1.3 0.19 0.05 11.66-1.52 25.5-3.47zm36.82-36.55c-1.31-3.55-0.2-7.89 2.02-7.89 5.46 0 7.52 4.3 3.82 8-2.58 2.58-4.86 2.54-5.84-0.11zm41.82-3.46c-1.16-3.04-1.29-8.14-0.23-8.74 1.5-0.86 8.74 1.91 9.04 3.45 0.38 1.96-4.43 7.86-6.4 7.86-0.79 0-1.88-1.16-2.41-2.57zm-141.48 28.47c0-2.22-13.21-13.23-15.03-12.53-2.81 1.08-1.42 3.43 5.28 8.97 6.67 5.5 9.75 6.62 9.75 3.56zm-3-25.4c0-1.68-0.77-2.05-4.76-2.31-3.69-0.24-4.9 0.07-5.39 1.35-0.89 2.31 1.43 3.52 6.15 3.22 3.25-0.22 4-0.64 4-2.26zm35.01-2.15c1.56-0.6 2.06-3.89 0.71-4.72-1.25-0.78-10.59 1.44-12.09 2.87-2.5 2.39-0.25 3.77 5.01 3.07 2.69-0.35 5.56-0.9 6.37-1.22zm14.49-11.72c0-4.07-4.09-27.12-4.96-28-0.72-0.71-1.42-0.65-2.27 0.19-0.97 0.98-0.75 3.98 1.04 14.35 1.24 7.22 2.49 13.5 2.78 13.97 0.85 1.37 3.41 0.99 3.41-0.51zm-85-9.07c56.42-5.77 65.53-6.89 66.96-8.21 1.28-1.17 1.28-2.05 0-7.1l-1.46-5.75-21.35-0.27c-21.04-0.27-21.61-0.22-38.5 3.25-19.97 4.11-35.55 8.02-36.74 9.21-1.26 1.26 4.06 11.31 5.97 11.29 0.89-0.01 12.2-1.1 25.12-2.42zm-77-97.14c51.5-3.98 49-3.42 49-10.92 0-8.06-3.41-9.4-24-9.44-14.69-0.03-26.75 1.54-49.14 6.42-22.99 5-32.28 7.75-32.65 9.67-0.5 2.58 4.61 7.84 7.63 7.86 1.47 0 23.59-1.61 49.16-3.59zm379.38 292.33c0.11-13.31-0.05-14.67-2.52-20.53-3.59-8.52-8.04-15.67-14.5-23.31-2.98-3.51-4.93-6.56-4.33-6.76 2.07-0.69 11.96 6.87 16.47 12.6 6.86 8.69 13.57 22.88 14.22 30.04 0.5 5.51 0.24 6.48-3.7 14.06-2.33 4.48-4.58 8.15-5 8.15s-0.71-6.42-0.64-14.25zm15.31 2.25c-0.31-1.38-0.82-6.43-1.13-11.22-1.04-16.02-5.01-27.9-13.94-41.7-2.6-4.02-4.51-7.52-4.26-7.78 1.01-1.01 8.94 7.36 13.65 14.4 6.88 10.29 9.47 19.02 9.43 31.8-0.02 6.91-0.51 11.08-1.6 13.5-1.55 3.42-1.59 3.44-2.15 1zm-296.69-273.25c-0.03-31.65-11.91-57.52-32.57-70.88-3.54-2.28-6.43-4.54-6.43-5.01 0-1.41 6.79-0.98 10.78 0.69 8.52 3.55 16.24 14.76 24.75 35.96 6.8 16.94 10.54 29.39 10.69 35.67 0.1 3.67-0.47 5.46-2.6 8.25-1.5 1.96-3.15 3.57-3.67 3.57s-0.95-3.72-0.95-8.25zm15.86-20.25c-0.36-0.55-3.23-7.3-6.38-15-9.26-22.66-13.99-31.29-23.14-42.16-2.38-2.84-4.34-5.43-4.34-5.75 0-1.54 3.18-0.24 8.22 3.38 6.09 4.36 10.52 10.41 17.87 24.44 6.94 13.24 9.06 20.28 8.7 28.93-0.16 3.93-0.58 6.71-0.93 6.16z" fill="#4f4f4f"/>
        <path id="path1524" d="m721.05 821.66c-1.1-0.27-2.45-0.84-3-1.25-0.55-0.42-84.02-25.2-185.5-55.07l-184.5-54.32-153 15.63c-129.68 13.25-156.43 15.72-175.5 16.21-23.698 0.61-56.157 2.85-70.153 4.83-6.035 0.86-8.404 1.61-8.616 2.72-0.186 0.98 5.991 6.3 17.069 14.7 17.923 13.59 21.721 17.61 23.682 25.08 1.578 6.01-0.149 14.02-3.769 17.48s-10.386 4.9-17.563 3.73c-17.282-2.81-50.629-14.55-114.93-40.44-21.32-8.59-41.57-16.3-45-17.14-3.74-0.91-15.37-1.89-29.18-2.47-24.98-1.04-31-2.2-34.52-6.69-3.1-3.92-2.55-7.42 2-12.93 2.22-2.67 3.9-5.53 3.74-6.35-0.15-0.83-9.05-6.39-19.77-12.36-29.68-16.53-41.8-25.12-50.99-36.14-6.71-8.07 0.13-22.69 12.95-27.66 4.27-1.66 8.45-2.26 18.11-2.61 15.55-0.57 21.81 0.84 47.71 10.73 9.99 3.82 20.43 7.61 23.2 8.43 4.89 1.45 5.13 1.43 7.71-0.79 2.66-2.29 2.68-2.41 6.36-39.7 3.87-39.15 4.15-41.46 6.58-54.4 1.65-8.77 6.82-26.51 8.92-30.57 3.89-7.53 12.57-11.93 23.53-11.93 9.48 0 15.57 2.56 22.52 9.45 7.19 7.15 10.56 14.84 14.9 34.05 6.25 27.62 11.41 41.39 21.74 58 10.3 16.55 20.903 26.16 33.545 30.42 8.069 2.72 13.495 2.62 26.228-0.49 32.633-7.95 56.74-13.08 86.81-18.48 18.529-3.33 49.348-8.95 68.487-12.49 55.9-10.32 103.85-17.05 138.7-19.47 9.08-0.63 17.49-1.54 18.7-2.02 2.63-1.06 4.07-7 2.52-10.41-1.62-3.53-34.73-47.19-67.06-88.4-62.95-80.24-167.73-217.45-171.09-224.04-6.204-12.15-6.713-35.01-1.032-46.12 2.636-5.16 7.69-9.55 14.465-12.58 4.838-2.16 7.579-2.69 14.155-2.75 4.485-0.04 8.76 0.39 9.5 0.95 0.739 0.57 3.595 1.84 6.345 2.82 14.6 5.24 41.157 23.37 67.997 46.43 18.9 16.24 49.31 44.78 104 97.61 43.73 42.23 54.83 52.26 67.92 61.39 7.37 5.14 9.77 5.23 29.58 1.05 31.63-6.66 35.69-7.22 53.5-7.31 17.62-0.09 21.71 0.51 30.71 4.57 5.38 2.42 5.01 1.21 6.84 22.47 0.57 6.69 1.42 13.44 1.88 15 1.3 4.42 3.31 8.35 4.26 8.35 3.34 0 4.33-21.89 1.42-31.35-1.29-4.19-1.5-6.16-0.73-6.93s1.69 0.33 3.21 3.85c6.34 14.68 7.49 16.76 10.75 19.44l3.5 2.89-3.65 4.69c-2.01 2.58-3.89 6.31-4.19 8.3-1.43 9.49-1.9 10.5-5.97 12.78-5.35 2.99-14.35 5.01-30.53 6.85-17.25 1.97-24.39 3.57-24.77 5.56-0.4 2.06 12.12 16.39 18.87 21.6 9.6 7.41 12.58 7.74 30.43 3.4 16.33-3.97 28.89-5.11 63.68-5.8l29.71-0.58 2.94 3.14c1.62 1.73 3.75 5.41 4.75 8.17 2.05 5.72 6.79 11.99 9.07 11.99 0.84 0 3.05-1.53 4.92-3.4 5.78-5.78 4.59-12.99-4.15-25.24-2.51-3.51-7.71-9.58-11.56-13.48-3.85-3.91-6.79-7.31-6.54-7.57 2.12-2.11 22.31 16.31 28.95 26.41 5.36 8.16 7.09 8.26 6.52 0.39-0.61-8.39-5.14-16.83-15.02-27.98-4.56-5.16-8.91-10.22-9.67-11.25-2.25-3.09 0.34-2.17 5.59 1.98 4.95 3.92 10.04 10.92 18.81 25.84 2.65 4.52 6.4 9.84 8.32 11.82 7.08 7.28-4.1 7.55 127.36-3.09 129.12-10.45 131.23-10.54 154.79-6.45 12.36 2.14 13.3 2.51 21.94 8.75 2.21 1.6 6.48 1.82 45 2.31 40.46 0.52 42.85 0.65 48.36 2.71 8.93 3.34 15.28 7.14 19.43 11.62 3.25 3.51 3.76 4.71 3.7 8.62-0.14 9.68-9.15 19.44-32.52 35.25-17.19 11.63-25.33 15.14-70.23 30.31-48.74 16.46-65.61 21.38-142.1 41.43-17.01 4.46-31.3 8.34-31.75 8.62-0.46 0.28-1.33 2.51-1.95 4.96-1.27 5.06-2.08 5.49-3.7 1.94-0.62-1.38-1.88-2.5-2.8-2.5-3.22 0-4.31 3.18-4.46 13-0.16 10.13-1.17 16.59-2.19 14-0.33-0.83-1.58-6-2.78-11.5s-2.78-11.47-3.51-13.25c-1.27-3.1-1.58-3.25-6.73-3.25-3.96 0-5.84 0.48-7.05 1.82-2.06 2.28-2.11 3.79-0.16 4.54 0.87 0.33 1.5 1.82 1.5 3.52 0 2.23-0.94 3.7-3.85 6-3.45 2.73-3.92 3.66-4.44 8.65-1.1 10.63-5.8 15.93-15.35 17.3-5.78 0.82-6.52 2.49-2.25 5.09 4.76 2.89 12.88 3.64 19.41 1.79 6.43-1.83 15.74-0.99 25.65 2.33 5.64 1.88 35.22 16.12 37.05 17.83 0.4 0.37-1.4 2.24-4 4.17-2.7 2-6.07 5.83-7.89 8.97-1.75 3.02-4.11 6.68-5.25 8.14-1.14 1.47-2.08 3.1-2.08 3.64 0 0.55 5.74 5.42 12.75 10.84 14.54 11.23 21.2 17.64 23.59 22.67 1.15 2.41 1.66 6.15 1.66 12.06 0 9.99 0.68 9.3-12.5 12.67-4.95 1.26-9.45 2.62-10 3.02-1.51 1.08-6.74 1.8-9 1.23zm27.78-17.59c-0.29-4.94-1.88-7.69-4.44-7.69-1.89 0-2.03 0.39-1.43 4.12 0.88 5.49 2.36 8.07 4.41 7.65 1.26-0.26 1.63-1.28 1.46-4.08zm-31.48-35.86c0.19-1.02-1.49-3.04-4.39-5.25-5.25-4.01-6.88-4.39-7.88-1.83-0.49 1.27 0.49 2.76 3.65 5.52 4.47 3.9 8.05 4.55 8.62 1.56zm-5.83-27.24c0.5-1.32 1.22-5.15 1.6-8.5 0.68-6.03 0.66-6.09-1.83-6.09-2.72 0-3.05 0.71-4.28 9.23-0.37 2.61-0.42 5.42-0.1 6.25 0.89 2.32 3.58 1.8 4.61-0.89zm-23.54-11.56c10.66-1.77 10.05-4.35-1.3-5.43-22.44-2.14-32.41-2.62-33.61-1.62-1.53 1.27-2.77 6.79-1.86 8.27 0.76 1.22 27.37 0.34 36.77-1.22zm-759.61-21.09c117.27-18.1 193.85-29.43 266.18-39.4 63.37-8.73 81.3-12.54 92.55-19.68 6.69-4.24 7.37-6.98 3.55-14.36-5.04-9.73-12.74-19.46-16.72-21.12-3.92-1.64-10.16-1.18-36.88 2.7-40.83 5.94-200.69 34.16-258 45.55-27.995 5.56-52.678 13.01-110.82 33.43l-17.83 6.27-19.67-6.57c-10.82-3.61-27.52-9.33-37.1-12.71-9.58-3.37-18.13-5.99-19-5.81-2.03 0.42 5.2 3.83 41.68 19.69 16.36 7.11 33.79 14.75 38.74 16.97 4.95 2.23 10.27 4.06 11.82 4.07s29.22-4.05 61.498-9.03zm117.12-41.62c-1.402-3.68-0.768-5.88 1.602-5.55 6.955 0.99 7.743 1.95 4.907 6-2.148 3.07-5.253 2.86-6.509-0.45zm36.247-0.61c-2.285-2.75-2.411-6.49-0.291-8.61 2.516-2.51 4.671-1.85 6.687 2.05 1.739 3.36 1.357 4.31-2.54 6.33-2.228 1.15-3.055 1.2-3.856 0.23zm30.796-6.82c-0.61-2.25-0.88-4.33-0.6-4.61s2.23-0.11 4.32 0.39c4.64 1.09 5.65 4.27 2.14 6.73-3.5 2.45-4.66 1.95-5.86-2.51zm33.5-2.29c-0.81-1.95-1.48-4.51-1.48-5.7 0-1.96 0.4-2.11 4.09-1.62 2.24 0.3 4.33 0.8 4.64 1.11s0.16 2.49-0.33 4.84c-0.71 3.34-1.39 4.34-3.17 4.59-1.79 0.25-2.58-0.43-3.75-3.22zm34.91-6.03c-0.81-2.13-0.05-5.86 1.28-6.3 0.65-0.21 2.67 0.95 4.5 2.59l3.33 2.99-2.81 1.07c-3.81 1.45-5.64 1.35-6.3-0.35zm36.28-3.24c-0.37-0.37-0.67-2.17-0.67-4 0-3.97 1.71-4.34 4.83-1.02s2.84 5.69-0.66 5.69c-1.56 0-3.13-0.3-3.5-0.67zm36.37-2.5c-3.35-1.26-3.27-1.02-1.96-6.21 1.23-4.9 2.93-5.8 6.31-3.33 1.4 1.03 1.63 2.08 1.09 4.97-0.87 4.62-2.25 5.78-5.44 4.57zm-398.01 49.66c2.35-0.83 10.85-4.82 18.88-8.86 8.02-4.04 18.42-9.04 23.09-11.12 4.678-2.08 9.093-4.25 9.815-4.82 1.014-0.81-1.51-3.9-11.115-13.62-14.32-14.48-16.91-18.05-24.19-33.38-4.33-9.12-6.26-15.08-10.4-32.19-6.47-26.7-10.23-36.58-18.01-47.24-6.26-8.58-15.69-12.18-21.85-8.32l-3.26 2.03 0.26 73.25 0.25 73.25 8.97 3.84c6.66 2.85 21.01 8.22 23.16 8.66 0.07 0.01 2.05-0.65 4.4-1.48zm807.97-14.89c0-3.72-2.28-5.45-4.62-3.5-1.43 1.19-1.87 5.07-0.71 6.23 0.37 0.37 1.72 0.67 3 0.67 1.99 0 2.33-0.51 2.33-3.4zm-906.5-10.04c0-1.45-1.52-2.53-5.96-4.25-7.74-3-10.79-3.06-10.36-0.18 0.24 1.58 1.88 2.72 6.32 4.4 7.18 2.71 10 2.72 10 0.03zm841.5-68.07c239.51-35.09 303.65-43.47 356.5-46.54 23.68-1.38 23.87-1.42 23.18-4.25-2.07-8.46-2.86-10.35-5.42-12.91-2.68-2.68-4.22-3.1-22.32-6.02l-19.44-3.13-19 1.16c-60.7 3.71-75.35 4.31-79.22 3.27-5.76-1.55-7.81-4.27-7.63-10.11 0.1-3.2-0.3-5-1.18-5.34-0.73-0.28-23.52 0.82-50.64 2.44-134 7.99-197.19 13.53-204.25 17.89-6.45 3.98-7.74 6.29-9.25 16.55-2.55 17.27-4.4 18.51-6.18 4.14-1.12-8.95-2.37-11.05-6.07-10.14-4.38 1.08-7.74 5.23-9.58 11.83-2.58 9.22-5.14 13.62-8.83 15.16-3.2 1.34-24.15 4.74-36.91 6-3.7 0.36-7 1.1-7.33 1.63-0.8 1.28 3.03 6.17 12.91 16.5 10.2 10.67 14.84 12.71 27.16 11.96 4.4-0.27 37.48-4.81 73.5-10.09zm-14.8-32.74c0.35-4.93 2.21-5.86 5.84-2.93 2.29 1.86 2.31 2 0.64 4.55-1.11 1.69-2.62 2.63-4.26 2.63-2.36 0-2.51-0.29-2.22-4.25zm42.44 0.5c-1.4-4.98-1.66-8.12-0.72-8.7 1.07-0.67 9.08 1.13 9.08 2.03 0 1.58-3.3 6.51-4.94 7.39-2.57 1.37-2.84 1.32-3.42-0.72zm-141.64 27.71c0-2.15-12.64-12.96-15.16-12.96-2.19 0-3.18 1.57-2.14 3.4 1.5 2.65 14.6 12.42 15.96 11.9 0.74-0.29 1.34-1.34 1.34-2.34zm-2.5-25.46c0-1.72-0.77-2.05-5.4-2.31-5.53-0.32-7.44 0.74-6.38 3.51 0.39 1.01 2.07 1.31 6.16 1.09 4.86-0.25 5.62-0.57 5.62-2.29zm33.5-1.87c1.44-0.67 2.5-2.01 2.5-3.15 0-1.76-0.6-1.96-5.25-1.77-2.9 0.12-6.16 0.7-7.25 1.29-1.97 1.05-2.67 3.99-1.28 5.38 0.9 0.9 7.94-0.2 11.28-1.75zm14.65-10.68c0.93-0.93-1.16-19.35-3.15-27.7-0.55-2.3-3.83-3.15-4.98-1.28-0.67 1.09 3.11 24.27 4.53 27.78 1 2.46 2 2.8 3.6 1.2zm-69.15-11.49c12.65-1.37 29.23-3.16 36.85-3.98 7.61-0.81 14.25-1.73 14.75-2.04 2.08-1.29 0.22-12.99-2.33-14.61-2.58-1.63-37.72-0.87-48.9 1.07-16.68 2.89-47.04 10.38-47.56 11.73-0.26 0.68 0.58 3.56 1.86 6.41l2.33 5.18 10-0.63c5.5-0.35 20.35-1.75 33-3.13zm-88.83-95.92c23.74-1.83 43.65-3.63 44.25-3.99 1.57-0.97 1.38-13.06-0.22-14.39-2.24-1.86-19.58-3.44-30-2.73-19.55 1.32-68.71 11.27-73.45 14.86-2.08 1.58-1.41 4.7 1.67 7.78 2.73 2.73 3.29 2.88 8.75 2.35 3.21-0.3 25.26-2.05 49-3.88zm375.72 302.29c0.34-1.75 0.9-6.13 1.22-9.75 1.15-12.82-4.8-28.4-16.19-42.43-5.69-6.99-6.31-8.74-2.36-6.62 10.13 5.42 23.24 25.18 26.08 39.27 1.15 5.74 1.13 5.81-3.04 14.23-4.31 8.7-6.87 11.07-5.71 5.3zm15.14-15.48c-1.59-19-4.71-29.32-13.02-43-2.53-4.17-4.41-7.78-4.18-8.01 1.1-1.1 12.19 12.92 15.16 19.16 4.54 9.54 5.84 16.35 5.34 27.84-0.55 12.58-2.39 14.82-3.3 4.01zm-295.98-268.05c-2.2-33.6-11.29-53.42-30.86-67.3l-7.75-5.5 3.97-0.31c12.44-0.95 24.65 17.04 36.6 53.94 4.65 14.37 5.29 20.17 2.72 24.81-3.22 5.82-3.98 4.89-4.68-5.64zm14.88-20.39c-0.59-0.78-3.24-6.81-5.9-13.41-7.12-17.65-13.7-30.05-20.46-38.5-3.29-4.13-5.55-7.66-5.02-7.84 1.69-0.59 10.31 6.27 13.98 11.12 5.18 6.84 14.49 25.15 16.95 33.34 2.25 7.49 2.56 18.08 0.45 15.29z" fill="#2f2f2f"/>
        <path id="path1522" d="m721.29 821.68c-0.97-0.25-1.58-0.76-1.35-1.13s-83.35-25.34-185.74-55.48l-186.15-54.81-151 15.53c-139.04 14.3-153.41 15.61-181.5 16.55-16.772 0.56-35.447 1.47-41.497 2.03-15.692 1.44-29.633 2.98-32.25 3.55-5.084 1.11-2.458 4.13 15.5 17.79 18.61 14.15 22.52 18.39 23.764 25.75 1.709 10.12-3.086 18.13-11.615 19.41-12.112 1.81-42.543-8.1-119.93-39.08-23.94-9.58-46.66-18.12-50.5-18.97-4.21-0.93-15.89-1.86-29.49-2.34-19.43-0.7-23.16-1.09-27.16-2.86-8.03-3.55-8.91-8.5-2.82-15.87 2.2-2.66 4-5.54 4-6.4 0-0.98-7.17-5.53-19.61-12.42-30.84-17.09-44.76-26.87-50.43-35.44-1.63-2.45-2.99-4.04-3.02-3.54-0.04 0.51-0.45-0.03-0.92-1.2-1.03-2.55-0.12-10.56 1.11-9.79 0.48 0.29 0.87-0.17 0.87-1.02 0-2.67 6.79-9.23 11.76-11.36 6.36-2.74 20.19-4.54 28.24-3.68 10.19 1.08 18.89 3.66 41.7 12.38 11.66 4.45 22.37 8.1 23.81 8.1 3.34 0 6.07-1.46 6.93-3.69 0.36-0.96 2.42-19.31 4.57-40.78 3.97-39.7 6.13-53.89 10.55-69.14 3.14-10.84 5.43-15.3 9.86-19.18 4.32-3.8 9.06-5.2 17.65-5.21 8.52-0.01 14.72 2.17 20.39 7.17 8.27 7.27 12.05 16.09 17.59 40.94 4.01 17.97 7.63 28.4 14.69 42.23 9.49 18.61 20.58 31.7 32.194 38.02 5.92 3.22 13.92 5.61 18.877 5.62 1.82 0.01 17.57-3.33 35-7.43 26.473-6.21 94.649-19.3 164.69-31.62 34.07-5.99 88.14-12.98 111.5-14.42 16.68-1.03 17.84-1.3 19.51-4.53 2.3-4.44 1.84-6.73-2.66-13.36-6.63-9.77-32.9-44.17-63.84-83.62-47.41-60.44-162.1-209.99-169.68-221.25-4.59-6.83-6.652-17.1-6.13-30.54 0.326-8.41 0.917-11.85 2.748-16 3.015-6.84 9.547-12.64 16.107-14.32 3.16-0.81 4.499-1.56 3.7-2.07-0.689-0.44 2.937-0.8 8.057-0.81 5.955-0.01 9.086 0.35 8.691 0.99-0.34 0.55 0.196 1 1.191 1.01 2.906 0.02 16.152 6.15 25.567 11.84 11.276 6.81 33.079 23.15 48.239 36.17 19.42 16.66 48.17 43.66 106.99 100.48 47.15 45.54 65.98 61.72 73.51 63.17 2.42 0.47 10.74-0.77 27-4.02 31.01-6.19 37.82-6.99 53.93-6.4 14.48 0.54 25.29 3.02 28.25 6.48 1.03 1.22 1.99 6.95 3.09 18.46 1.13 11.91 2.18 18.02 3.64 21.33 2.59 5.86 5.23 5.85 6.27-0.04 1.26-7.09 0.89-21.94-0.67-27.08-1.73-5.7-1.83-6.72-0.63-5.98 0.49 0.3 2.37 4.24 4.19 8.75 2.18 5.4 4.64 9.53 7.2 12.09l3.88 3.89-3.51 4.51c-2.73 3.5-3.65 5.77-4.12 10.17-0.78 7.24-1.36 8.27-5.89 10.53-5.71 2.84-12.83 4.41-27.63 6.12-16.67 1.92-24.44 3.39-26.7 5.04-1.56 1.14-1.59 1.56-0.32 3.94 2.57 4.8 18.4 20.22 24.02 23.4 6.85 3.88 9.41 3.9 24.53 0.22 17.38-4.24 27.33-5.17 62.04-5.79 22.96-0.41 31.65-0.25 33.28 0.63 1.28 0.68 3.83 4.64 6.04 9.38 6.26 13.41 9.82 15.21 16.05 8.11 2.24-2.55 3.06-4.48 3.06-7.2 0-7.25-7.48-19.51-19.88-32.58-7.33-7.73-1.08-3.6 8.56 5.65 4.62 4.44 10.46 11.16 12.97 14.94 5.21 7.84 7.66 8.6 8.16 2.56 0.17-2.04-0.16-5.38-0.72-7.44-0.57-2.05-0.91-3.85-0.76-4s2.23 2.41 4.62 5.7c5.68 7.8 9.8 10.34 16.45 10.16 2.81-0.08 58.4-4.43 123.53-9.68 129.66-10.44 120.03-10.08 146.97-5.52 8.85 1.5 12.3 2.55 15.39 4.71 9.79 6.85 5.26 6.27 49.25 6.28 44.59 0.01 46.34 0.21 58.63 6.66 3.77 1.98 8.16 5.09 9.75 6.9 1.59 1.82 3.1 3.09 3.36 2.84 0.98-0.98 1.58 5.49 0.76 8.22-0.48 1.59-0.9 2.46-0.95 1.94s-1.2 1.28-2.55 4c-3.58 7.18-11.02 13.87-28.54 25.67-13.52 9.11-17.54 11.25-31.5 16.73-19.83 7.78-74.54 26.05-100.26 33.48-10.58 3.05-39.6 10.92-64.49 17.49-24.89 6.56-46 12.22-46.92 12.58s-2.41 2.48-3.3 4.72c-1.6 4.01-1.66 4.04-3.14 1.92-2.13-3.04-5.05-2.69-6.86 0.81-1.07 2.07-1.54 6.02-1.56 13.25-0.03 11.91-0.77 11.4-3.92-2.7-2.94-13.14-3.84-14.5-9.62-14.5-5.61 0-10.43 2.33-10.43 5.05 0 1.11 0.68 2.27 1.5 2.58 2.96 1.14 1.74 5.84-2.35 9.13-3.52 2.83-3.9 3.62-4.4 9.09-0.94 10.35-5.47 15.04-16 16.58-6.31 0.92-6.51 3.56-0.5 6.38 6.52 3.05 12.96 3.61 18.9 1.64 6.44-2.14 14.15-1.39 25.85 2.51 7.97 2.66 25.35 10.75 32.83 15.28l3.34 2.02-4.86 4.25c-2.68 2.34-6.15 6.67-7.73 9.62-1.57 2.95-3.75 6.36-4.85 7.56-1.09 1.21-1.75 2.82-1.46 3.56 0.29 0.75 6.22 5.78 13.18 11.18 13.98 10.85 20.84 17.29 23.12 21.7 1.1 2.12 1.43 5.4 1.22 12.07l-0.29 9.16-11.79 3.1c-6.49 1.71-11.48 3.43-11.09 3.82 0.4 0.4 0 0.72-0.87 0.72s-2.18 0.17-2.92 0.38c-0.73 0.21-2.12 0.17-3.09-0.08zm28.5-17.03c-0.42-6.6-1.78-9.27-4.74-9.27-3.3 0-3.91 1.76-2.47 7.14 1.46 5.46 2.74 7.03 5.39 6.65 1.79-0.25 2.04-0.89 1.82-4.52zm-32.44-34.47c2.29-2.29 1.18-4.49-4.12-8.14-6.09-4.19-7.2-4.42-8.64-1.73-1.47 2.75-1.55 2.61 4.05 7.04 5.42 4.29 6.8 4.73 8.71 2.83zm-5.96-27.11c1.35-1.62 3.54-15.28 2.68-16.67-0.77-1.24-5.19-1.37-5.93-0.17-0.96 1.56-2.77 15.23-2.2 16.7 0.69 1.8 4 1.89 5.45 0.14zm-24.6-12.86c11.63-1.45 14.67-4.89 5.52-6.23-8.02-1.18-38.02-3.44-39.28-2.96-1.61 0.62-3.93 8.82-2.94 10.41 0.85 1.38 21.33 0.7 36.7-1.22zm-753.64-21.87c108.87-16.83 173.24-26.3 288.38-42.44 51.39-7.2 72.02-14.28 72.02-24.7 0-5.29-11.01-22.56-17.18-26.95-2.79-1.99-3.84-2.11-13.17-1.55-17.74 1.07-62.2 8.26-168.65 27.27-72.415 12.94-118.12 21.48-131.5 24.56-15.823 3.65-50.114 14.35-80.88 25.26-16.44 5.82-30.7 10.59-31.69 10.59-2.35 0-25.32-7.58-55.82-18.43-23.72-8.44-32.18-10.46-25.81-6.17 1.54 1.04 21.56 10.07 44.5 20.07 22.94 10.01 43.73 19.13 46.2 20.27 2.48 1.15 5.44 2.12 6.6 2.17 1.15 0.05 31.3-4.43 66.996-9.95zm113.01-41.55c-0.334-0.87-0.607-2.49-0.607-3.61 0-1.62 0.456-1.92 2.25-1.43 1.237 0.33 2.812 0.6 3.5 0.61 1.592 0.02 1.626 3.24 0.05 4.82-1.695 1.69-4.475 1.49-5.193-0.39zm35.431-2.34c-1.38-2.58-1.314-5.4 0.162-6.87 1.674-1.68 2.425-1.52 4.761 0.98 2.783 2.99 2.563 4.49-0.923 6.3-2.763 1.42-3.032 1.4-4-0.41zm31.939-4.64c-0.54-1.41-0.98-2.99-0.98-3.5 0-1.4 4.36-1.12 6.46 0.41 1.78 1.3 1.77 1.43-0.31 3.5-2.8 2.81-3.98 2.72-5.17-0.41zm33-3c-1.76-4.63-1.26-6.44 1.77-6.42 4.57 0.03 5.35 1.05 4.06 5.28-1.37 4.45-4.35 5.04-5.83 1.14zm35.02-8.43c0-3.66 1.82-3.9 4.88-0.63 1.96 2.08 2.03 2.45 0.6 3-3.8 1.45-5.48 0.72-5.48-2.37zm36.67-0.67c-0.97-0.97-0.82-6.33 0.18-6.33 1.39 0 4.15 3.53 4.15 5.32 0 1.65-3 2.34-4.33 1.01zm34.99-3.05c-1.54-0.39-1.73-1.07-1.16-4.12 0.88-4.69 1.21-5.16 3.59-5.16 2.55 0 3.4 2.31 2.28 6.22-0.95 3.3-1.74 3.82-4.71 3.06zm-376.99 41.39c11.46-5.68 23.42-11.39 26.583-12.69 3.753-1.53 5.75-2.93 5.75-4.02 0-0.91-5.208-6.79-11.573-13.06-19.88-19.59-25.92-31.05-34.54-65.6-7.32-29.35-12.37-41.67-20.74-50.65-6.03-6.47-15.84-8.77-21-4.92l-2.65 1.98-0.25 73.02c-0.22 60.28-0.03 73.21 1.09 74.13 1.53 1.27 13.02 6.19 22.66 9.7 10.54 3.83 11.45 3.62 34.67-7.89zm787.83-6.17c0-3.75-0.19-4.02-3.13-4.31-2.64-0.26-3.22 0.1-3.77 2.27-0.96 3.82 0.97 6.72 4.22 6.35 2.41-0.28 2.68-0.72 2.68-4.31zm-906.16-8.67c1.59-2.53-0.4-4.2-8.16-6.85-7.34-2.49-10.18-2.23-10.18 0.95 0 2.22 1.83 3.4 9.38 6.11 5.93 2.12 7.51 2.09 8.96-0.21zm846.16-69.42c145.97-21.27 174.55-25.4 199.5-28.84 60.97-8.38 114.27-14.43 145.5-16.51 33.05-2.2 31.56-1.86 29.76-6.76-0.57-1.54-1.53-4.6-2.13-6.8-1.85-6.76-5.01-8.11-27.23-11.63l-19.4-3.08-24 1.58c-47.73 3.14-70.01 3.94-73.93 2.65-4.8-1.59-6.8-4.78-6.39-10.21l0.32-4.31-14.5 0.16c-38.03 0.42-196.28 11.7-228.3 16.27-12.37 1.77-12.96 1.96-17.49 5.8-4.98 4.22-5.07 4.46-7.28 18.55-0.67 4.28-1.61 8.02-2.07 8.31-0.47 0.29-0.87 0.16-0.88-0.29-0.04-1.85-2.06-14.93-2.54-16.46-0.8-2.58-3.14-2.95-7.51-1.2-4.46 1.79-6.8 5.43-8.86 13.86-1.59 6.52-4.42 10.99-7.83 12.37-3.41 1.37-24.01 4.72-34.87 5.66-4.47 0.39-8.73 1.07-9.45 1.52-2.09 1.29 0.17 4.56 11.23 16.31 9.9 10.51 11.42 11.51 21.35 14.01 3.76 0.95 15.04-0.47 87-10.96zm-18.9-29.15c-0.33-0.33-0.6-2.1-0.6-3.93 0-2.6 0.42-3.33 1.88-3.33 2.84 0 4.48 2.46 3.22 4.81-1.13 2.11-3.53 3.42-4.5 2.45zm41.37-4.85c-0.53-1.4-0.97-3.47-0.97-4.59 0-1.82 0.41-1.97 3.75-1.35 2.07 0.39 3.9 0.85 4.08 1.02 0.17 0.18-0.37 1.66-1.22 3.29-2.14 4.15-4.43 4.81-5.64 1.63zm-141.16 29.93c0.23-1.62-1.48-3.65-6.94-8.25-7.6-6.4-10.15-7.31-11.79-4.23-1.29 2.39-0.31 3.65 7.86 10.13 6.84 5.42 10.32 6.18 10.87 2.35zm-2.77-24.41c1.87-3.5-0.44-5.07-6.94-4.73-4.45 0.24-5.65 0.66-5.92 2.1-0.72 3.75 0.55 4.7 6.26 4.7 4.53 0 5.69-0.37 6.6-2.07zm32.15-2.06c4.22-1.05 5.92-4.2 3.55-6.56-1.21-1.21-2.47-1.28-7.24-0.4-6.33 1.17-8.5 2.45-8.5 5.01 0 3.96 2.51 4.36 12.19 1.95zm15.77-10.82c1.26-0.8 1.21-2.65-0.37-14.21-0.99-7.32-2.2-14.32-2.67-15.57-0.98-2.57-5.35-3.19-6.24-0.88-0.74 1.93 4.03 28.55 5.43 30.23 1.33 1.61 1.88 1.67 3.85 0.43zm-91.85-9.57c24.69-2.42 71.19-7.49 73.64-8.03 1.73-0.38 2.25-1.19 2.25-3.53 0-5.37-2.15-11.93-4.28-13.08-1.38-0.73-8.86-0.91-23.13-0.54-22.76 0.58-25.78 1.04-57.34 8.68-13.22 3.21-17.25 4.55-17.25 5.75 0 0.87 1.14 3.98 2.53 6.92 2.97 6.28 1.35 6.02 23.58 3.83zm-67.78-98.04c24.82-1.96 45.69-4.04 46.39-4.63 0.8-0.66 1.28-3.47 1.28-7.41 0-9.34-0.99-9.81-21.56-10.25-17.99-0.39-29.78 0.95-52.44 5.96-16.9 3.73-32.23 7.83-33.37 8.91-1.23 1.16-0.06 5.15 2.42 8.31 2.73 3.47 1.82 3.48 57.28-0.89zm378.31 297.91c2.73-16.82-1.39-30.35-14.56-47.75-2.75-3.63-4.51-6.6-3.91-6.6s4.08 3.04 7.73 6.76c5.06 5.14 7.9 9.25 11.92 17.25 7.07 14.07 7.57 18.42 3.15 27.4-4.14 8.41-5.36 9.23-4.33 2.94zm14.03-17.1c-0.88-12.32-2.84-19.15-9.04-31.56-5.65-11.3-4.63-11.94 2.36-1.48 4.75 7.11 7.62 14.57 9.05 23.51 1.08 6.72 0.46 18.28-0.99 18.28-0.41 0-1.03-3.94-1.38-8.75zm-218.17-240.49c-9.26-10.65-10.18-12.15-5.06-8.24 2.04 1.55 5.63 5.56 7.98 8.9 8.07 11.48 7.53 11.36-2.92-0.66zm-77.81-26.51c-0.34-7.1-1.48-16.3-2.57-20.75-1.08-4.4-1.82-8.13-1.65-8.3 0.47-0.47 6.23 15.86 7.98 22.61 2.01 7.75 1.96 12.68-0.16 16.28-0.95 1.6-2 2.91-2.35 2.91s-0.91-5.74-1.25-12.75zm13.85-19.75c-0.49-1.1-3.43-8.12-6.54-15.6-6.59-15.85-11.09-24.21-17.43-32.37-2.51-3.23-4.35-6.09-4.09-6.34 0.89-0.9 7.66 5.02 11.05 9.65 4.85 6.64 15 26.63 16.95 33.38 1.73 6.01 1.78 15.18 0.06 11.28zm-22.96-19.27c-4.65-9.78-14.06-20.42-23.22-26.22-5.06-3.21-4.53-4.44 1.24-2.88 6.22 1.68 14.32 10.73 19.94 22.29 2.59 5.32 4.51 9.87 4.26 10.11-0.24 0.24-1.24-1.24-2.22-3.3z"/>
      </g>
    </g>
  </g>
  <metadata>
    <rdf:RDF>
      <cc:Work>
        <dc:format>image/svg+xml</dc:format>
        <dc:type rdf:resource="http://purl.org/dc/dcmitype/StillImage"/>
        <cc:license rdf:resource="http://creativecommons.org/licenses/publicdomain/"/>
        <dc:publisher>
          <cc:Agent rdf:about="http://openclipart.org/">
            <dc:title>Openclipart</dc:title>
          </cc:Agent>
        </dc:publisher>
        <dc:title>Propellor Airliner</dc:title>
        <dc:date>2008-10-13T06:47:39</dc:date>
        <dc:description>Simple outline of a four-engine propliner (DC4 or similar) in flight, with a vaguely Art Deco flavour.</dc:description>
        <dc:source>http://openclipart.org/detail/19572/propellor-airliner-by-wirelizard</dc:source>
        <dc:creator>
          <cc:Agent>
            <dc:title>wirelizard</dc:title>
          </cc:Agent>
        </dc:creator>
        <dc:subject>
          <rdf:Bag>
            <rdf:li>aerocraft</rdf:li>
            <rdf:li>aeroplane</rdf:li>
            <rdf:li>air</rdf:li>
            <rdf:li>aircraft</rdf:li>
            <rdf:li>airliner</rdf:li>
            <rdf:li>airplane</rdf:li>
            <rdf:li>clip art</rdf:li>
            <rdf:li>clipart</rdf:li>
            <rdf:li>dc4</rdf:li>
            <rdf:li>fly</rdf:li>
            <rdf:li>image</rdf:li>
            <rdf:li>media</rdf:li>
            <rdf:li>outline</rdf:li>
            <rdf:li>prop</rdf:li>
            <rdf:li>propellor</rdf:li>
            <rdf:li>public domain</rdf:li>
            <rdf:li>silhouette</rdf:li>
            <rdf:li>stencil</rdf:li>
            <rdf:li>stylized</rdf:li>
            <rdf:li>svg</rdf:li>
            <rdf:li>wing</rdf:li>
          </rdf:Bag>
        </dc:subject>
      </cc:Work>
      <cc:License rdf:about="http://creativecommons.org/licenses/publicdomain/">
        <cc:permits rdf:resource="http://creativecommons.org/ns#Reproduction"/>
        <cc:permits rdf:resource="http://creativecommons.org/ns#Distribution"/>
        <cc:permits rdf:resource="http://creativecommons.org/ns#DerivativeWorks"/>
      </cc:License>
    </rdf:RDF>
  </metadata>
</svg>
